<svg xmlns="http://www.w3.org/2000/svg" width="75" height="79" viewBox="0 0 75 79" fill="none">
<path d="M46.7681 33.258V39.2074H73.0038C74.3346 39.2074 75 39.8576 75 41.158V50.2284C75 51.5938 74.3346 52.2765 73.0038 52.2765H1.9962C0.665399 52.2765 0 51.5938 0 50.2284V41.158C0 39.8576 0.665399 39.2074 1.9962 39.2074H28.327V33.258H3.23194C1.96451 33.258 1.3308 32.6078 1.3308 31.3074V1.95062C1.3308 0.650205 1.96451 0 3.23194 0H16.9202C18.1876 0 18.8213 0.650205 18.8213 1.95062V7.11975H29.6578V2.92592C29.6578 1.62551 30.3232 0.975308 31.654 0.975308H43.346C44.6768 0.975308 45.3422 1.62551 45.3422 2.92592V7.11975H56.1787V1.95062C56.1787 0.650205 56.8441 0 58.1749 0H71.673C73.0038 0 73.6692 0.650205 73.6692 1.95062V31.3074C73.6692 32.6078 73.0038 33.258 71.673 33.258H46.7681ZM3.51711 69.9296C2.18631 69.9296 1.52091 69.3444 1.52091 68.1741V59.5914C1.52091 58.2909 2.18631 57.6407 3.51711 57.6407H71.7681C73.0355 57.6407 73.6692 58.2909 73.6692 59.5914V77.0494C73.6692 78.3498 73.0355 79 71.7681 79H57.1293C55.8619 79 55.2281 78.3498 55.2281 77.0494V69.9296H3.51711ZM18.8213 22.9198H29.6578V16.9704H18.8213V22.9198ZM56.1787 22.9198V16.9704H45.3422V22.9198H56.1787Z" fill="#FF802D"/>
</svg>