<svg width="256" height="256" viewBox="0 0 256 256" fill="none" xmlns="http://www.w3.org/2000/svg">
<g clip-path="url(#clip0_200_8985)">
<path d="M115.454 36.9824L28.122 62.647C27.0622 62.9584 26.4556 64.07 26.767 65.1297L57.8046 170.745C58.116 171.805 59.2276 172.412 60.2874 172.1L103.953 159.268L147.619 146.436C148.679 146.124 149.286 145.013 148.974 143.953L133.456 91.1451L117.937 38.3374C117.625 37.2776 116.514 36.671 115.454 36.9824Z" fill="#E0E0E0" stroke="#A5A5A5" stroke-width="2.5" stroke-linecap="round" stroke-linejoin="round"/>
<path d="M61.9648 143.955L86.6744 136.694" stroke="#C2C0C0" stroke-width="3" stroke-linecap="round" stroke-linejoin="round"/>
<path d="M59.9698 137.167L109.389 122.644" stroke="#C2C0C0" stroke-width="3" stroke-linecap="round" stroke-linejoin="round"/>
<path d="M63.959 150.742L121.047 133.966" stroke="#C2C0C0" stroke-width="3" stroke-linecap="round" stroke-linejoin="round"/>
<path d="M65.9541 157.53L133.266 137.749" stroke="#C2C0C0" stroke-width="3" stroke-linecap="round" stroke-linejoin="round"/>
<rect x="43.5762" y="71.9316" width="67.4944" height="58.3673" rx="4" transform="rotate(-16.3767 43.5762 71.9316)" fill="#F1F1F1"/>
<path opacity="0.2" d="M94.5 162L131 81.4999L136 97.9999L113 158L94.5 162Z" fill="#7E7E7E"/>
<path d="M81.4073 76.1904L85.4562 78.7038L89.9535 77.0947C90.9709 76.7311 92.0772 77.3318 92.3189 78.3791L93.392 83.0131L97.7068 85.0414C98.6832 85.4999 99.0375 86.7054 98.4644 87.6193L95.9329 91.6595L97.5375 96.1374C97.9001 97.1503 97.2947 98.254 96.2432 98.4972L91.5903 99.5771L89.545 103.881C89.0825 104.855 87.872 105.211 86.9562 104.642L82.9073 102.129L78.41 103.738C77.3926 104.101 76.2864 103.501 76.0447 102.454L74.9716 97.8195L70.6567 95.7912C69.6803 95.3327 69.3261 94.1272 69.8991 93.2133L72.4306 89.1731L70.826 84.6952C70.4635 83.6823 71.0688 82.5786 72.1203 82.3354L76.7732 81.2555L78.8186 76.9512C79.281 75.9772 80.4915 75.6215 81.4073 76.1904Z" fill="#BFBFBF"/>
<path d="M117.373 36.4185L26.2031 63.2109L58.3685 172.664L103.953 159.268L149.538 145.872L133.456 91.1451L117.373 36.4185Z" stroke="#A5A5A5" stroke-width="2.5" stroke-linecap="round" stroke-linejoin="round"/>
</g>
<g clip-path="url(#clip1_200_8985)">
<path d="M232.246 109.631L149.436 72.171C148.429 71.7157 147.244 72.1625 146.789 73.1689L101.288 173.755C100.832 174.762 101.279 175.947 102.286 176.402L143.691 195.132L185.096 213.862C186.103 214.317 187.288 213.871 187.743 212.864L210.493 162.571L231.56 116L233.244 112.278C233.699 111.271 233.253 110.086 232.246 109.631Z" fill="#E0E0E0"/>
<path d="M232.246 109.631L149.436 72.171C148.429 71.7157 147.244 72.1625 146.789 73.1689L101.288 173.755C100.832 174.762 101.279 175.947 102.286 176.402L143.691 195.132L185.096 213.862C186.103 214.317 187.288 213.871 187.743 212.864L210.493 162.571L231.56 116L233.244 112.278C233.699 111.271 233.253 110.086 232.246 109.631Z" fill="#E0E0E0" stroke="#A5A5A5" stroke-width="2.5" stroke-linecap="round" stroke-linejoin="round"/>
<path d="M121.933 156.09L172.028 178.751" stroke="#C2C0C0" stroke-width="3" stroke-linecap="round" stroke-linejoin="round"/>
<path d="M124.856 149.626L188.688 178.501" stroke="#C2C0C0" stroke-width="3" stroke-linecap="round" stroke-linejoin="round"/>
<path d="M118.867 162.489L152.587 177.743" stroke="#C2C0C0" stroke-width="3" stroke-linecap="round" stroke-linejoin="round"/>
<path d="M116.085 169.018L170.22 193.506" stroke="#C2C0C0" stroke-width="3" stroke-linecap="round" stroke-linejoin="round"/>
<rect x="155.059" y="89.3145" width="67.398" height="58.5298" rx="4" transform="rotate(24.3401 155.059 89.3145)" fill="#F9F9F9"/>
<path fill-rule="evenodd" clip-rule="evenodd" d="M183.576 115.743C184.952 116.366 185.563 117.987 184.94 119.363L184.94 119.362C184.76 119.759 184.498 120.091 184.183 120.349C187.53 122.405 189.883 125.579 190.97 129.155L192.512 129.028C193.034 128.985 193.491 129.373 193.534 129.895C193.577 130.416 193.189 130.874 192.667 130.916L191.415 131.019C191.912 133.849 191.637 136.844 190.47 139.679L191.499 140.165C191.972 140.389 192.174 140.954 191.95 141.427C191.727 141.9 191.162 142.102 190.689 141.878L189.694 141.408C188.268 144.388 186.014 146.719 183.336 148.249L183.913 149.44C184.141 149.911 183.944 150.478 183.473 150.706C183.002 150.934 182.436 150.737 182.208 150.266L181.637 149.088C177.75 150.725 173.218 150.8 169.072 148.925L161.883 145.673C157.77 143.812 154.847 140.398 153.496 136.437L151.813 136.903C151.308 137.043 150.786 136.747 150.647 136.243C150.507 135.739 150.803 135.217 151.307 135.077L152.993 134.61C152.37 131.667 152.585 128.52 153.779 125.543L152.512 124.996C152.032 124.789 151.811 124.231 152.018 123.751C152.225 123.271 152.783 123.049 153.263 123.257L154.547 123.811C155.835 121.057 157.825 118.849 160.206 117.304L159.438 116.27C159.126 115.85 159.213 115.257 159.633 114.945C160.053 114.633 160.647 114.72 160.959 115.14L161.868 116.364C165.361 114.657 169.463 114.254 173.367 115.457C173.352 115.049 173.429 114.633 173.608 114.237C174.231 112.86 175.852 112.249 177.228 112.872L177.878 113.166C178.547 112.399 179.664 112.125 180.639 112.566L181.539 112.974C182.514 113.415 183.046 114.434 182.912 115.443L183.576 115.743Z" fill="#BFBFBF"/>
</g>
<defs>
<clipPath id="clip0_200_8985">
<rect width="110" height="130" fill="white" transform="translate(24 62.0146) rotate(-16.3767)"/>
</clipPath>
<clipPath id="clip1_200_8985">
<rect width="109.843" height="130.362" fill="white" transform="translate(146.729 69) rotate(24.3401)"/>
</clipPath>
</defs>
</svg>
