<svg width="206" height="168" viewBox="0 0 206 168" fill="none" xmlns="http://www.w3.org/2000/svg">
<path d="M95.5253 147.972L95.5268 147.972C101.64 148.604 107.108 144.159 107.739 138.046L108.58 129.897C109.211 123.784 104.767 118.317 98.654 117.685L98.6525 117.685C92.5393 117.054 87.0718 121.498 86.4406 127.611L85.5992 135.76C84.968 141.874 89.4121 147.341 95.5253 147.972Z" fill="#C969EB"/>
<path d="M40.279 97.958L41.6271 98.8025L43.3474 111.281L30.9632 118.083L28.599 116.601C23.4508 113.376 21.892 106.588 25.1173 101.44C28.3426 96.2915 35.1308 94.7326 40.279 97.958Z" fill="#4FC58C" stroke="#115635" stroke-width="2.5" stroke-linecap="round"/>
<path d="M95.5013 149.388C101.78 150.036 107.396 145.471 108.044 139.192L108.907 130.824C109.555 124.545 104.99 118.93 98.7113 118.282C92.4321 117.634 86.8169 122.199 86.1687 128.478L85.3054 136.845C84.7925 141.812 87.5413 146.363 91.821 148.37" fill="#C969EB"/>
<path d="M95.5013 149.388C101.78 150.036 107.396 145.471 108.044 139.192L108.907 130.824C109.555 124.545 104.99 118.93 98.7113 118.282C92.4321 117.634 86.8169 122.199 86.1687 128.478L85.3054 136.845C84.7925 141.812 87.5413 146.363 91.821 148.37L95.5013 149.388Z" stroke="#8831A7" stroke-width="2.5" stroke-miterlimit="10" stroke-linecap="round"/>
<path d="M98.4535 139.518L94.8257 139.143" stroke="#9E59B7" stroke-width="2.5" stroke-miterlimit="10" stroke-linecap="round"/>
<path d="M98.198 134.763L94.6657 134.398" stroke="#3A3A3A" stroke-width="2.5" stroke-miterlimit="10" stroke-linecap="round"/>
<path d="M122.97 97.6867C121.875 79.2226 106.809 64.5918 88.3839 64.5918H69.8479C50.7123 64.5918 35.1993 80.3734 35.1993 99.8415V102.224C35.1993 121.692 50.7123 137.474 69.8479 137.474H88.3839C107.519 137.474 123.032 121.692 123.032 102.224V99.8415C123.032 99.1186 123.011 98.4003 122.968 97.6867H122.97Z" fill="#66DAA2" stroke="#4FC58C" stroke-width="0.0780725" stroke-miterlimit="10"/>
<path d="M46.4111 123C41.7671 117.255 39.0001 110.023 39.0001 102.169V99.8781C39.0001 81.1682 54.7027 66 74.0718 66H80.9284C100.297 66 116 81.1682 116 99.8781V102.169C116 103.384 115.935 104.583 115.805 105.764" stroke="#4FC58C" stroke-width="4" stroke-linecap="round" stroke-linejoin="round"/>
<path d="M114.277 111.03C110.023 125.608 96.5573 136.259 80.6055 136.259H73.7492C65.5547 136.259 58.016 133.448 52.045 128.737" stroke="#4FC58C" stroke-width="4" stroke-linecap="round" stroke-linejoin="round"/>
<path d="M97.0001 83.6531C92.9652 73.6806 85.5658 67 77.1071 67C64.3288 67 52.0001 80.3279 52.0001 99.1356L52.2474 101.055C52.2474 110.391 54.8 118.849 58.9329 125" stroke="#4FC58C" stroke-width="4" stroke-linecap="round" stroke-linejoin="round"/>
<path d="M77.3634 135.554C90.1907 135.554 100.59 119.852 100.59 100.484C100.59 96.9784 100.25 93.5932 99.6156 90.3984" stroke="#4FC58C" stroke-width="4" stroke-linecap="round" stroke-linejoin="round"/>
<path d="M73.2894 74.3389C73.2894 74.3389 71.4922 81.4044 71.767 90.3984" stroke="#4FC58C" stroke-width="4" stroke-linecap="round" stroke-linejoin="round"/>
<path d="M71.7407 112.978C71.7407 112.978 70.1745 124.712 73.9439 135.178" stroke="#4FC58C" stroke-width="4" stroke-linecap="round" stroke-linejoin="round"/>
<path d="M123.033 98.1854C121.854 79.8836 106.636 65.4043 88.0358 65.4043H69.2734C49.9052 65.4043 34.2032 81.1062 34.2032 100.474V102.846C34.2032 108.653 35.6148 114.131 38.1131 118.954" stroke="#115635" stroke-width="2.49832" stroke-linecap="round" stroke-linejoin="round"/>
<path d="M41.2052 123.877C47.6025 132.402 57.794 137.917 69.2738 137.917H88.0362C106.586 137.917 121.773 123.514 123.024 105.281C123.024 103.521 123.024 99.6 123.024 98" stroke="#115635" stroke-width="2.49832" stroke-miterlimit="10" stroke-linecap="round"/>
<path d="M93.4052 62.5086C93.4052 58.9172 90.4931 56.0051 86.9018 56.0051H85.1701C84.4706 53.6879 82.3205 52 79.7753 52H77.4238C74.8786 52 72.7285 53.6879 72.029 56.0051H70.3317C66.7404 56.0051 63.8282 58.9172 63.8282 62.5086C63.8282 63.9342 64.2873 65.2505 65.0649 66.3216C65.0196 66.6308 64.9962 66.9478 64.9962 67.2694C64.9962 69.8677 66.5202 72.1115 68.7234 73.153C69.565 73.5511 70.5066 73.7729 71.4997 73.7729H74.2135C75.9123 73.7729 77.4581 73.1217 78.6167 72.0553C79.7753 73.1217 81.3212 73.7729 83.02 73.7729H85.7338C89.3252 73.7729 92.2373 70.8608 92.2373 67.2694C92.2373 66.9478 92.2123 66.6308 92.1686 66.3216C92.9462 65.2505 93.4052 63.9326 93.4052 62.5086Z" fill="#FFD362" stroke="#97511E" stroke-width="2.49832" stroke-miterlimit="10" stroke-linecap="round"/>
<path d="M52.0001 83.6416L57.0772 85.285" stroke="#36805C" stroke-width="4.73703" stroke-miterlimit="10" stroke-linecap="round"/>
<path d="M80.1306 83.9744L75.0007 85.2908" stroke="#36805C" stroke-width="4.73703" stroke-miterlimit="10" stroke-linecap="round"/>
<path d="M56.3828 91H54.6174C53.1719 91 52.0001 93.0141 52.0001 95.4987V95.5013C52.0001 97.9859 53.1719 100 54.6174 100H56.3828C57.8283 100 59.0001 97.9859 59.0001 95.5013V95.4987C59.0001 93.0141 57.8283 91 56.3828 91Z" fill="#161616"/>
<path d="M76.3827 91H74.6173C73.1718 91 72 93.0141 72 95.4987V95.5013C72 97.9859 73.1718 100 74.6173 100H76.3827C77.8282 100 79 97.9859 79 95.5013V95.4987C79 93.0141 77.8282 91 76.3827 91Z" fill="#161616"/>
<path d="M71.1217 115.395H59.749C56.316 115.395 53.4314 112.572 53.0437 108.836C52.656 105.099 54.8911 101.638 58.2363 100.794C58.9355 100.618 65.2763 99.1202 72.4919 100.76C75.8802 101.53 78.1882 104.983 77.8336 108.756C77.479 112.528 74.5812 115.395 71.12 115.395H71.1217Z" fill="#EB5882"/>
<path d="M61.5079 108.432C61.5079 108.432 63.659 107.108 68.9882 108.433" stroke="#B21945" stroke-width="3.55277" stroke-miterlimit="10" stroke-linecap="round"/>
<path d="M58.6015 106.482C59.7672 105.809 60.263 104.486 59.709 103.526C59.155 102.566 57.7609 102.334 56.5952 103.007C55.4295 103.68 54.9336 105.004 55.4877 105.963C56.0417 106.923 57.4358 107.155 58.6015 106.482Z" fill="#FF8CB0"/>
<path d="M115.965 85.7158H133.025" stroke="#3A3A3A" stroke-width="2.49832" stroke-miterlimit="10" stroke-linecap="round"/>
<path d="M119.807 91.7617H133.212" stroke="#3A3A3A" stroke-width="2.49832" stroke-miterlimit="10" stroke-linecap="round"/>
<path d="M139.203 85.7158H141.025" stroke="#3A3A3A" stroke-width="2.49832" stroke-miterlimit="10" stroke-linecap="round"/>
<path d="M112.96 68.2579L109.11 71.7948" stroke="#115635" stroke-width="2.50138" stroke-linecap="round" stroke-linejoin="round"/>
<path d="M128.365 98.716L123.138 98.8039" stroke="#115635" stroke-width="2.50138" stroke-linecap="round" stroke-linejoin="round"/>
<path d="M45.1387 67.4144L48.6534 71.2843" stroke="#115635" stroke-width="2.50138" stroke-linecap="round" stroke-linejoin="round"/>
<path d="M28.9998 92.4766L34.2265 92.5852" stroke="#115635" stroke-width="2.50138" stroke-linecap="round" stroke-linejoin="round"/>
<path d="M115.828 114.916L115.472 115.225C111.097 119.032 104.465 118.572 100.658 114.198L113.002 95L116.865 99.394C120.881 103.961 120.416 110.923 115.828 114.916Z" fill="#66DAA2"/>
<path d="M114.465 130.783L109.69 126.063" stroke="#115635" stroke-width="2.50138" stroke-linecap="round" stroke-linejoin="round"/>
<path d="M78.9097 60H75.0906C73.3838 60 72.0001 61.3431 72.0001 63C72.0001 64.6569 73.3838 66 75.0906 66H78.9097C80.6165 66 82.0001 64.6569 82.0001 63C82.0001 61.3431 80.6165 60 78.9097 60Z" fill="#EF5B62"/>
<path d="M163.26 96.2435L167.026 100.163L172.681 99.8589C173.96 99.7906 175.018 100.771 174.942 101.954L174.614 107.193L178.845 110.682C179.802 111.471 179.802 112.857 178.845 113.646L174.614 117.136L174.942 122.374C175.016 123.559 173.959 124.539 172.681 124.47L167.026 124.165L163.26 128.085C162.409 128.972 160.912 128.972 160.061 128.085L156.295 124.165L150.64 124.47C149.361 124.538 148.303 123.558 148.378 122.374L148.707 117.136L144.476 113.646C143.519 112.857 143.519 111.471 144.476 110.682L148.707 107.193L148.378 101.954C148.305 100.769 149.362 99.7893 150.64 99.8589L156.295 100.163L160.061 96.2435C160.912 95.3563 162.409 95.3563 163.26 96.2435Z" fill="#787878"/>
<path d="M148.786 117.166L144.488 113.757C143.515 112.986 143.515 111.632 144.488 110.861L148.786 107.452L148.453 102.334C148.378 101.176 149.452 100.219 150.75 100.287L156.496 100.584L160.322 96.7545C161.188 95.8878 162.708 95.8878 163.573 96.7545L167.4 100.584L173.145 100.287C174.444 100.22 175.519 101.178 175.443 102.334L175.109 107.452L178.5 110.5" stroke="#525252" stroke-width="2.42069" stroke-linecap="round" stroke-linejoin="round"/>
<path d="M178.847 110.849C179.801 111.631 179.801 113.004 178.847 113.786L174.633 117.243L174.96 122.434C175.033 123.608 173.98 124.579 172.707 124.51L167.075 124.208L163.323 128.092C162.475 128.971 160.985 128.971 160.136 128.092L156.385 124.208L150.753 124.51C149.479 124.577 148.425 123.606 148.5 122.434L148.999 117.5" stroke="#525252" stroke-width="2.42069" stroke-linecap="round" stroke-linejoin="round"/>
<rect x="153.619" y="112.612" width="10.5309" height="3.68582" rx="1.84291" fill="#626060"/>
<path d="M153.621 107.233C154.338 107.233 163.184 107.233 164.828 107.233" stroke="#3A3A3A" stroke-width="2.50138" stroke-linecap="round"/>
<path d="M153 112.355L156.433 112" stroke="#3A3A3A" stroke-width="2.46688" stroke-miterlimit="10" stroke-linecap="round"/>
<path d="M166.199 112.533L162.766 112.178" stroke="#3A3A3A" stroke-width="2.46688" stroke-miterlimit="10" stroke-linecap="round"/>
<path d="M100.657 115.197V115.197C104.463 119.571 111.096 120.031 115.47 116.225L115.847 115.896C120.43 111.908 120.912 104.96 116.924 100.377L116.596 100" stroke="#115635" stroke-width="2.5" stroke-linecap="round"/>
<rect x="35.085" y="103.703" width="32.5" height="24.5" rx="12.25" transform="rotate(29.3923 35.085 103.703)" fill="#C969EB" stroke="#8831A7" stroke-width="2.5"/>
<rect x="31.1562" y="108.971" width="35" height="22" rx="11" transform="rotate(29.3923 31.1562 108.971)" fill="white"/>
<path d="M42.3574 118L32.3574 133" stroke="#D3D3D3" stroke-width="3" stroke-linecap="square" stroke-linejoin="round"/>
<path d="M49.0546 122.873L39.6595 137" stroke="#D3D3D3" stroke-width="3" stroke-linecap="square" stroke-linejoin="round"/>
<rect x="31.6319" y="110.673" width="32.5" height="19.5" rx="9.75" transform="rotate(29.3923 31.6319 110.673)" stroke="#515151" stroke-width="2.5"/>
</svg>
