<svg width="206" height="168" viewBox="0 0 206 168" fill="none" xmlns="http://www.w3.org/2000/svg">
<g clip-path="url(#clip0_319_12732)">
<path d="M76.316 99.4707H90.044V111.611H70.1188C68.5046 111.611 67.1921 110.289 67.1921 108.663C67.1921 103.586 71.2839 99.4707 76.316 99.4707Z" fill="#C969EB" stroke="#8831A7" stroke-width="2.29" stroke-miterlimit="10" stroke-linecap="round"/>
<path d="M93.8029 99.7463L107.281 96.736C112.159 95.6464 116.991 98.7533 118.071 103.661C118.43 105.291 117.406 106.91 115.789 107.271L97.0552 111.455C96.6989 111.535 96.3473 111.309 96.2683 110.95L93.8029 99.7463Z" fill="#C969EB" stroke="#8831A7" stroke-width="2.29" stroke-miterlimit="10" stroke-linecap="round"/>
<path d="M67.0307 93.2838H51.4007C48.9975 93.2838 47.0493 95.2466 47.0493 97.6677V103.211C47.0493 105.632 48.9975 107.595 51.4007 107.595H67.0307C69.4339 107.595 71.3821 105.632 71.3821 103.211V97.6677C71.3821 95.2466 69.4339 93.2838 67.0307 93.2838Z" fill="#4AC8FF" stroke="#0B6289" stroke-width="2" stroke-linecap="round"/>
<path d="M59.3877 88.2778C60.7703 90.4343 60.4966 92.3081 59.2123 93.1424C57.9279 93.9768 56.1242 93.4606 54.7415 91.304C53.3589 89.1475 54.5661 85.8879 54.5661 85.8879C54.5661 85.8879 58.0121 86.1212 59.3947 88.2778H59.3877Z" fill="#4AC8FF" stroke="#0B6289" stroke-width="2" stroke-linecap="round"/>
<mask id="mask0_319_12732" style="mask-type:luminance" maskUnits="userSpaceOnUse" x="45" y="49" width="93" height="70">
<path d="M137.011 49H45V119H137.011V49Z" fill="white"/>
</mask>
<g mask="url(#mask0_319_12732)">
<path d="M101.554 57.004C101.554 54.5788 99.6031 52.6131 97.1958 52.6131H96.0378C95.5676 51.0505 94.1288 49.9121 92.4233 49.9121H90.8512C89.1457 49.9121 87.707 51.0505 87.2367 52.6131H86.0998C83.6924 52.6131 81.7413 54.5788 81.7413 57.004C81.7413 57.9656 82.0501 58.8566 82.5695 59.5778C82.5414 59.7899 82.5204 60.002 82.5204 60.2141C82.5204 61.9677 83.5451 63.4808 85.0189 64.1879C85.5804 64.4566 86.212 64.605 86.8788 64.605H88.6966C89.8335 64.605 90.8723 64.1667 91.6443 63.4454C92.4233 64.1667 93.455 64.605 94.592 64.605H96.4098C98.8171 64.605 100.768 62.6394 100.768 60.2141C100.768 59.9949 100.754 59.7828 100.719 59.5778C101.238 58.8566 101.547 57.9656 101.547 57.004H101.554Z" fill="#DBA735" stroke="#97511E" stroke-width="2.58" stroke-miterlimit="10" stroke-linecap="round"/>
<path d="M121.43 81.2707C121.43 80.7828 121.416 80.302 121.388 79.8212C120.644 67.4192 110.425 57.598 97.9328 57.598H85.3628C72.3858 57.598 61.8652 68.197 61.8652 81.2707V82.8687C61.8652 95.9424 72.3858 106.541 85.3628 106.541H97.9328C110.91 106.541 121.43 95.9424 121.43 82.8687" fill="#66DAA2"/>
<path d="M121.43 81.2707C121.43 80.7828 121.416 80.302 121.388 79.8212C120.644 67.4192 110.425 57.598 97.9328 57.598H85.3628C72.3858 57.598 61.8652 68.197 61.8652 81.2707V82.8687C61.8652 95.9424 72.3858 106.541 85.3628 106.541H97.9328C110.91 106.541 121.43 95.9424 121.43 82.8687" stroke="#2DA04B" stroke-width="0.07" stroke-miterlimit="10"/>
<path d="M66.6869 75.9535C69.1223 65.7646 78.3655 58.1919 89.3914 58.1919H93.9533C105.758 58.1919 115.521 66.8818 117.072 78.1525" stroke="#4FC58C" stroke-width="4" stroke-linecap="round" stroke-linejoin="round"/>
<path d="M116.588 89.303C113.71 98.7 104.6 105.566 93.806 105.566H89.1668C83.6223 105.566 78.5199 103.756 74.4773 100.715" stroke="#4FC58C" stroke-width="4" stroke-linecap="round" stroke-linejoin="round"/>
<path d="M105.148 70.297C102.432 63.3677 97.4555 58.7222 91.7706 58.7222C83.1731 58.7222 76.2108 69.3212 76.2108 82.395C76.2108 88.8859 77.9303 94.7616 80.7096 99.0394" stroke="#4FC58C" stroke-width="4" stroke-linecap="round" stroke-linejoin="round"/>
<path d="M85.0049 102.525C87.0823 104.017 89.4265 104.859 91.911 104.859C100.501 104.859 107.464 94.7758 107.464 82.3455C107.464 80.097 107.239 77.9192 106.811 75.8687" stroke="#4FC58C" stroke-width="4" stroke-linecap="round" stroke-linejoin="round"/>
<path d="M91.6443 95.6454V105.516" stroke="#4FC58C" stroke-width="4" stroke-linecap="round" stroke-linejoin="round"/>
<path d="M91.6443 58.4606V90.4414" stroke="#4FC58C" stroke-width="4" stroke-linecap="round" stroke-linejoin="round"/>
<path d="M121.381 79.6444C120.588 67.2919 110.397 57.5131 97.9328 57.5131H85.3628C72.3858 57.5131 61.8652 68.1121 61.8652 81.1858V82.7838C61.8652 86.701 62.8127 90.399 64.4831 93.6586" stroke="#115635" stroke-width="2.58" stroke-linecap="round" stroke-linejoin="round"/>
<path d="M121.374 79.7576C121.55 80.3232 121.451 83.1091 121.374 84.4313C120.539 96.7414 110.362 106.457 97.9328 106.457H85.3628C77.6707 106.457 70.8418 102.737 66.5606 96.9818C65.9289 96.0697 64.6586 94.1818 64.6586 93.899" stroke="#115635" stroke-width="2.58" stroke-miterlimit="10" stroke-linecap="round"/>
<path d="M62.946 64.7394L65.5639 66.203" stroke="#115635" stroke-width="2.58" stroke-linecap="round" stroke-linejoin="round"/>
<path d="M57.8647 81.8859L60.8546 81.8364" stroke="#115635" stroke-width="2.58" stroke-linecap="round" stroke-linejoin="round"/>
<path d="M119.339 64.1737L116.721 65.6373" stroke="#115635" stroke-width="2.58" stroke-linecap="round" stroke-linejoin="round"/>
<path d="M125.122 81.3202L122.132 81.2707" stroke="#115635" stroke-width="2.58" stroke-linecap="round" stroke-linejoin="round"/>
<path d="M118.56 99.5555L116.258 97.6252" stroke="#115635" stroke-width="2.58" stroke-linecap="round" stroke-linejoin="round"/>
</g>
<path d="M148.704 76.7737L151.35 79.5454L155.315 79.3333C156.213 79.2838 156.957 79.9768 156.901 80.8182L156.67 84.5232L159.638 86.9909C160.312 87.5495 160.312 88.5323 159.638 89.0838L156.67 91.5515L156.901 95.2566C156.95 96.0909 156.213 96.7909 155.315 96.7414L151.35 96.5222L148.704 99.2939C148.107 99.9232 147.054 99.9232 146.458 99.2939L143.812 96.5222L139.846 96.7414C138.948 96.7909 138.204 96.098 138.26 95.2566L138.492 91.5515L135.523 89.0838C134.849 88.5252 134.849 87.5424 135.523 86.9909L138.492 84.5232L138.26 80.8182C138.211 79.9838 138.948 79.2909 139.846 79.3333L143.812 79.5454L146.458 76.7737C147.054 76.1444 148.107 76.1444 148.704 76.7737Z" fill="#787878"/>
<path d="M138.548 91.5656L135.53 89.1545C134.85 88.6101 134.85 87.6555 135.53 87.104L138.548 84.6929L138.317 81.0727C138.268 80.2525 139.018 79.5737 139.931 79.6232L143.966 79.8353L146.655 77.1273C147.258 76.5121 148.332 76.5121 148.935 77.1273L151.624 79.8353L155.659 79.6232C156.572 79.5737 157.322 80.2525 157.273 81.0727L157.042 84.6929L159.421 86.8495" stroke="#525252" stroke-width="2.42" stroke-linecap="round" stroke-linejoin="round"/>
<path d="M159.645 87.097C160.312 87.6485 160.312 88.6172 159.645 89.1758L156.691 91.6222L156.922 95.2919C156.971 96.1192 156.235 96.8121 155.343 96.7626L151.392 96.5505L148.76 99.294C148.163 99.9162 147.118 99.9162 146.521 99.294L143.889 96.5505L139.938 96.7626C139.046 96.8121 138.303 96.1263 138.359 95.2919L138.71 91.8061" stroke="#525252" stroke-width="2.42" stroke-linecap="round" stroke-linejoin="round"/>
<path d="M122.743 92.103L122.588 92.4C120.693 96.0273 116.237 97.4202 112.636 95.5111L115.837 79.701L119.479 81.6101C123.269 83.5899 124.729 88.299 122.743 92.1101V92.103Z" fill="#66DAA2"/>
<path d="M112.889 96.1687C116.489 98.0778 120.946 96.6849 122.841 93.0576L123.002 92.7465C124.989 88.9424 123.536 84.2404 119.767 82.2394L119.458 82.0768" stroke="#115635" stroke-width="2.5" stroke-linecap="round"/>
<path d="M59.2123 93.1424C59.2123 93.1424 57.5068 94.3374 57.4086 96.3596L59.2123 93.1424Z" fill="#4AC8FF"/>
<path d="M59.2123 93.1424C59.2123 93.1424 57.5068 94.3374 57.4086 96.3596" stroke="#0B6289" stroke-width="2" stroke-linecap="round"/>
<path d="M60.3071 96.9677V93.2838" stroke="#0B6289" stroke-width="2" stroke-linecap="round"/>
<path d="M62.581 84.0707L65.8165 81.5253L71.8243 96.4869C68.6309 99.0253 63.9917 98.4738 61.4721 95.2495L61.2686 94.9879C58.6297 91.6081 59.2122 86.7152 62.581 84.0707Z" fill="#66DAA2"/>
<path d="M62.6863 84.5233L62.4126 84.7424C59.0648 87.401 58.4893 92.294 61.1282 95.6667L61.3458 95.9424C63.8654 99.1596 68.4975 99.7182 71.6979 97.1798" stroke="#115635" stroke-width="2.5" stroke-linecap="round"/>
<path d="M99.9119 73.7758H83.7486C78.1437 73.7758 73.6 78.3533 73.6 84C73.6 89.6467 78.1437 94.2242 83.7486 94.2242H99.9119C105.517 94.2242 110.061 89.6467 110.061 84C110.061 78.3533 105.517 73.7758 99.9119 73.7758Z" fill="#3CB279" fill-opacity="0.8" style="mix-blend-mode:darken"/>
<path d="M148.942 84.5091H146.219C143.975 84.5091 142.156 86.342 142.156 88.603V88.6101C142.156 90.8711 143.975 92.704 146.219 92.704H148.942C151.187 92.704 153.006 90.8711 153.006 88.6101V88.603C153.006 86.342 151.187 84.5091 148.942 84.5091Z" fill="#626060"/>
</g>
<path d="M114.689 126.75C115.934 128.93 115.175 131.706 112.995 132.951L111.337 133.897C109.157 135.142 106.381 134.383 105.136 132.203C104.898 131.786 105.043 131.254 105.46 131.016L113.503 126.425C113.92 126.187 114.451 126.332 114.689 126.75Z" fill="#DEC7B8" stroke="#B09685" stroke-width="2"/>
<path d="M111.46 121.092C112.079 122.176 111.702 123.556 110.618 124.174L104.989 127.388C103.905 128.006 102.526 127.629 101.907 126.546L101.727 126.23C100.221 123.591 101.138 120.232 103.776 118.726C106.415 117.22 109.774 118.138 111.28 120.776L111.46 121.092Z" fill="#DEC7B8" stroke="#B09685" stroke-width="2"/>
<path d="M114.13 156.737C115.488 159.117 114.66 162.148 112.28 163.507L110.47 164.54C108.089 165.899 105.058 165.071 103.7 162.691C103.439 162.235 103.598 161.655 104.053 161.395L112.834 156.383C113.289 156.123 113.87 156.281 114.13 156.737Z" fill="#DEC7B8" stroke="#B09685" stroke-width="2"/>
<path d="M110.604 150.561C111.279 151.744 110.868 153.25 109.685 153.926L103.539 157.434C102.356 158.109 100.849 157.697 100.174 156.514L99.9768 156.169C98.3328 153.289 99.3348 149.621 102.215 147.977C105.095 146.333 108.763 147.335 110.407 150.216L110.604 150.561Z" fill="#DEC7B8" stroke="#B09685" stroke-width="2"/>
<path d="M79.9016 129.582C78.9674 131.912 76.3211 133.043 73.9909 132.109L72.2192 131.399C69.8891 130.465 68.7574 127.818 69.6916 125.488C69.8704 125.042 70.3768 124.826 70.8227 125.005L79.4179 128.451C79.8638 128.629 80.0804 129.136 79.9016 129.582Z" fill="#DEC7B8" stroke="#B09685" stroke-width="2"/>
<path d="M82.3257 123.536C81.8614 124.694 80.5462 125.256 79.3881 124.792L73.3718 122.38C72.2138 121.915 71.6514 120.6 72.1156 119.442L72.2511 119.104C73.3815 116.285 76.5834 114.916 79.4028 116.046C82.2222 117.176 83.5915 120.378 82.4611 123.198L82.3257 123.536Z" fill="#DEC7B8" stroke="#B09685" stroke-width="2"/>
<path d="M81.994 156.013C80.9741 158.557 78.0849 159.792 75.5408 158.772L73.6064 157.997C71.0624 156.977 69.8269 154.088 70.8468 151.544C71.042 151.057 71.5949 150.82 72.0817 151.015L81.4659 154.778C81.9528 154.973 82.1892 155.526 81.994 156.013Z" fill="#DEC7B8" stroke="#B09685" stroke-width="2"/>
<path d="M84.6406 149.412C84.1337 150.676 82.6978 151.29 81.4334 150.784L74.8649 148.15C73.6006 147.643 72.9865 146.207 73.4934 144.943L73.6413 144.574C74.8754 141.496 78.3713 140.001 81.4495 141.235C84.5277 142.469 86.0226 145.965 84.7885 149.043L84.6406 149.412Z" fill="#DEC7B8" stroke="#B09685" stroke-width="2"/>
<defs>
<clipPath id="clip0_319_12732">
<rect width="116" height="70" fill="white" transform="translate(45 49)"/>
</clipPath>
</defs>
</svg>
