<svg width="206" height="168" viewBox="0 0 206 168" fill="none" xmlns="http://www.w3.org/2000/svg">
<g clip-path="url(#clip0_231_13170)">
<path d="M102.579 58.3232C102.579 54.8936 99.7987 52.1135 96.369 52.1135H94.7159C94.0477 49.9012 91.996 48.291 89.5657 48.291H87.3219C84.8916 48.291 82.8398 49.9026 82.1717 52.1135H80.5515C77.1219 52.1135 74.3418 54.8936 74.3418 58.3232C74.3418 59.6839 74.7805 60.9413 75.5218 61.9636C75.4788 62.259 75.4558 62.5615 75.4558 62.8683C75.4558 65.3488 76.9111 67.4908 79.0145 68.4844C79.8189 68.8644 80.7164 69.0766 81.6641 69.0766H84.255C85.8766 69.0766 87.352 68.4543 88.4588 67.4363C89.5643 68.4543 91.0411 69.0766 92.6627 69.0766H95.2536C98.6832 69.0766 101.463 66.2965 101.463 62.8669C101.463 62.56 101.44 62.2575 101.397 61.9622C102.139 60.9399 102.577 59.6824 102.577 58.3218L102.579 58.3232Z" fill="#FFD362" stroke="#97511E" stroke-width="2.58081" stroke-miterlimit="10" stroke-linecap="round"/>
<path d="M128.526 94.3029L128.559 94.2958L127.654 90.0561L126.531 84.7955L146.267 80.583C146.545 80.5242 146.829 80.4941 147.112 80.4941C149.003 80.4941 150.662 81.8376 151.056 83.6886C151.281 84.7424 151.082 85.8221 150.496 86.7268C149.909 87.6315 149.006 88.2538 147.951 88.4789L146.96 88.6897C147.151 89.0323 147.292 89.4065 147.376 89.8023L147.404 89.9356V90.0718C147.404 92.2311 145.75 94.2771 143.638 94.7273L143.242 94.8119C143.317 95.0342 143.374 95.265 143.41 95.503C143.732 97.6107 142.323 99.6165 140.202 100.07L130.209 102.203L128.524 94.3058L128.526 94.3029Z" fill="#F2F7FF"/>
<path d="M147.11 81.7843C148.378 81.7843 149.518 82.6675 149.793 83.958C150.11 85.4405 149.164 86.9001 147.681 87.2155L144.2 87.9582C144.171 87.9639 144.171 88.0027 144.2 88.0113C145.136 88.2865 145.897 89.0493 146.115 90.0702C146.115 91.6144 144.879 93.1413 143.37 93.4639L141.443 93.8754C141.312 93.9027 141.261 94.0661 141.355 94.1608C141.757 94.5594 142.042 95.087 142.135 95.6964C142.356 97.143 141.365 98.4994 139.934 98.8048L131.203 100.669L130.057 95.2992L130.09 95.292L129.149 90.8846L128.061 85.7875L146.534 81.8446C146.728 81.803 146.92 81.7829 147.11 81.7829M147.11 79.2021C146.738 79.2021 146.362 79.2422 145.996 79.3197L127.523 83.2626L125 83.8017L125.539 86.3251L126.091 88.9102L126.626 91.4208L127.029 93.3062L126.996 93.3134L127.533 95.8354L128.679 101.205L129.218 103.728L131.742 103.189L140.473 101.325C143.116 100.762 144.915 98.3575 144.736 95.7394C145.721 95.3637 146.617 94.7099 147.315 93.8453C148.206 92.7442 148.696 91.4036 148.696 90.0673V89.7949L148.659 89.6228C151.277 88.8285 152.899 86.1387 152.318 83.4145C151.796 80.9714 149.607 79.1992 147.112 79.1992L147.11 79.2021Z" fill="#77A0E0"/>
<g clip-path="url(#clip1_231_13170)">
<path d="M61.0691 71.9491C61.0691 66.5991 56.7391 62.2691 51.3891 62.2691C50.3591 62.2691 49.3691 62.4291 48.4391 62.7291C46.3691 58.8991 42.3091 56.2891 37.6491 56.2891C32.7091 56.2891 28.4691 59.2191 26.5291 63.4191C25.7691 63.2091 24.9691 63.0891 24.1491 63.0891C19.2591 63.0891 15.2891 67.0591 15.2891 71.9491H61.0691Z" fill="#E1F8FF" stroke="#85DAF5" stroke-width="2.58" stroke-linecap="round" stroke-linejoin="round"/>
</g>
<path d="M36.2311 100.564C34.1105 100.111 32.7011 98.1048 33.0237 95.9971C33.0596 95.7606 33.1155 95.5297 33.1915 95.3061L32.7958 95.2215C30.6838 94.7713 29.0292 92.7252 29.0292 90.566V90.4298L29.0579 90.2964C29.1425 89.9007 29.2844 89.5265 29.4737 89.1838L28.4829 88.973C27.4291 88.7479 26.5244 88.1257 25.938 87.2209C25.3516 86.3162 25.1523 85.238 25.3774 84.1828C25.7731 82.3317 27.4305 80.9883 29.3217 80.9883C29.6042 80.9883 29.8881 81.0184 30.1662 81.0772L49.9023 85.2896L48.8241 90.3409L48.5459 91.6485L47.8749 94.7956L47.9079 94.8028L46.2232 102.694L36.2297 100.561L36.2311 100.564Z" fill="#F2F7FF"/>
<path d="M29.3238 82.28C29.5131 82.28 29.7067 82.3001 29.9002 82.3417L48.3731 86.2846L47.2849 91.3803L46.3443 95.7877L46.3773 95.7949L45.2317 101.164L36.4999 99.3005C35.069 98.9951 34.0768 97.6373 34.2991 96.192C34.3923 95.5813 34.6762 95.0551 35.079 94.6565C35.1737 94.5618 35.1235 94.3998 34.9916 94.3711L33.0646 93.9596C31.5548 93.637 30.3189 92.1101 30.3189 90.5659C30.5368 89.545 31.2982 88.7808 32.2344 88.507C32.2617 88.4984 32.2617 88.4596 32.2344 88.4539L28.7532 87.7112C27.2707 87.3943 26.3244 85.9362 26.6412 84.4536C26.9165 83.1632 28.0564 82.28 29.3238 82.28ZM29.3238 79.6992C26.829 79.6992 24.6382 81.4714 24.1178 83.9145C23.5371 86.6373 25.1587 89.3285 27.7768 90.1228L27.7395 90.2949V90.5673C27.7395 91.9036 28.2299 93.2442 29.1202 94.3453C29.8199 95.2099 30.7146 95.8637 31.6996 96.2394C31.519 98.8575 33.3198 101.262 35.9623 101.825L44.694 103.689L47.2175 104.228L47.7566 101.705L48.9022 96.3354L49.4398 93.8134L49.4069 93.8062L49.8098 91.9208L50.3503 89.3916L50.898 86.8251L51.4371 84.3017L48.9136 83.7626L30.4407 79.8197C30.0737 79.7408 29.6995 79.7021 29.3267 79.7021L29.3238 79.6992Z" fill="#77A0E0"/>
<path d="M102.5 115.581L102.502 115.58C108.179 114.155 113.936 117.602 115.361 123.28L117.261 130.848C118.686 136.525 115.239 142.282 109.561 143.707L109.56 143.708C103.883 145.133 98.1252 141.686 96.7002 136.008L94.8007 128.44C93.3757 122.763 96.8229 117.006 102.5 115.581Z" fill="#C969EB"/>
<path d="M102.279 116.174L102.281 116.174C107.958 114.749 113.716 118.196 115.141 123.873L117.04 131.441C118.465 137.119 115.018 142.876 109.341 144.301L109.339 144.302C103.662 145.727 97.9045 142.279 96.4795 136.602L94.58 129.034C93.155 123.357 96.6022 117.599 102.279 116.174Z" fill="#C969EB" stroke="#8831A7" stroke-width="2.29406" stroke-miterlimit="10" stroke-linecap="round"/>
<path d="M108.787 134.766L105.507 135.589" stroke="#9E59B7" stroke-width="2.29406" stroke-miterlimit="10" stroke-linecap="round"/>
<path d="M107.654 131.014L104.374 131.837" stroke="#9E59B7" stroke-width="2.29406" stroke-miterlimit="10" stroke-linecap="round"/>
<path d="M74.0877 115.811L74.0863 115.811C68.409 114.386 62.6515 117.833 61.2265 123.51L59.3269 131.078C57.902 136.755 61.3491 142.513 67.0265 143.938L67.0278 143.938C72.7052 145.363 78.4627 141.916 79.8877 136.239L81.7872 128.671C83.2122 122.994 79.765 117.236 74.0877 115.811Z" fill="#C969EB"/>
<path d="M74.3084 116.405L74.307 116.404C68.6297 114.979 62.8722 118.427 61.4472 124.104L59.5477 131.672C58.1227 137.349 61.5698 143.107 67.2472 144.532L67.2485 144.532C72.9259 145.957 78.6834 142.51 80.1084 136.832L82.0079 129.265C83.4329 123.587 79.9857 117.83 74.3084 116.405Z" fill="#C969EB" stroke="#8831A7" stroke-width="2.29406" stroke-miterlimit="10" stroke-linecap="round"/>
<path d="M67.8008 134.996L71.0813 135.819" stroke="#9E59B7" stroke-width="2.29406" stroke-miterlimit="10" stroke-linecap="round"/>
<path d="M68.9336 131.244L72.2141 132.067" stroke="#9E59B7" stroke-width="2.29406" stroke-miterlimit="10" stroke-linecap="round"/>
<path d="M130.897 92.6405C130.897 91.9537 130.877 91.2712 130.835 90.5945C129.777 73.0564 115.22 59.1602 97.4166 59.1602H79.5057C61.0156 59.1602 46.0254 74.1504 46.0254 92.6405V94.9044C46.0254 113.395 61.0156 128.385 79.5057 128.385H97.4166C115.907 128.385 130.897 113.395 130.897 94.9044" fill="#66DAA2"/>
<path d="M130.897 92.6405C130.897 91.9537 130.877 91.2712 130.835 90.5945C129.777 73.0564 115.22 59.1602 97.4166 59.1602H79.5057C61.0156 59.1602 46.0254 74.1504 46.0254 92.6405V94.9044C46.0254 113.395 61.0156 128.385 79.5057 128.385H97.4166C115.907 128.385 130.897 113.395 130.897 94.9044" stroke="#2DA04B" stroke-width="0.0716893" stroke-miterlimit="10"/>
<path d="M59.0256 115C54.6229 109.456 52 102.479 52 94.9V92.6895C52 74.6361 66.8871 60 85.2499 60H91.7501C110.113 60 125 74.6361 125 92.6895V94.9C125 96.0717 124.937 97.228 124.815 98.369" stroke="#4FC58C" stroke-width="4" stroke-linecap="round" stroke-linejoin="round"/>
<path d="M124 104C119.899 117.291 106.916 127 91.5361 127H84.9258C77.0238 127 69.756 124.437 64 120.143" stroke="#4FC58C" stroke-width="4" stroke-linecap="round" stroke-linejoin="round"/>
<path d="M107.702 77.121C103.835 67.3167 96.745 60.75 88.6383 60.75C76.3924 60.75 66.4648 75.7402 66.4648 94.2303C66.4648 103.408 68.9109 111.723 72.871 117.772" stroke="#4FC58C" stroke-width="4" stroke-linecap="round" stroke-linejoin="round"/>
<path d="M79 122.701C81.9638 124.814 85.3031 126 88.8359 126C101.077 126 111 111.743 111 94.157C111 90.9742 110.675 87.9005 110.07 85" stroke="#4FC58C" stroke-width="4" stroke-linecap="round" stroke-linejoin="round"/>
<path d="M88.4609 112.969V126.93" stroke="#4FC58C" stroke-width="4" stroke-linecap="round" stroke-linejoin="round"/>
<path d="M88.4609 85.3984V103.427" stroke="#4FC58C" stroke-width="4" stroke-linecap="round" stroke-linejoin="round"/>
<path d="M88.4609 60.375V74.8734" stroke="#4FC58C" stroke-width="4" stroke-linecap="round" stroke-linejoin="round"/>
<path d="M75.6641 70.5577L79.503 68" stroke="#36805C" stroke-width="4.39648" stroke-miterlimit="10" stroke-linecap="round"/>
<path d="M99.6065 70.5577L95.7676 68" stroke="#36805C" stroke-width="4.39648" stroke-miterlimit="10" stroke-linecap="round"/>
<path d="M130.827 90.3362C129.701 72.8641 115.173 59.041 97.4166 59.041H79.5057C61.0156 59.041 46.0254 74.0312 46.0254 92.5213V94.7853C46.0254 100.328 47.3731 105.557 49.7575 110.163" stroke="#115635" stroke-width="2.58081" stroke-linecap="round" stroke-linejoin="round"/>
<path d="M130.816 90.5C131.07 91.3 130.922 95.2402 130.816 97.1104C129.623 114.517 115.125 128.265 97.4164 128.265H79.5055C68.5471 128.265 58.8189 123 52.7109 114.862C51.8073 113.575 50 110.9 50 110.5" stroke="#115635" stroke-width="2.58081" stroke-miterlimit="10" stroke-linecap="round"/>
<path d="M77.7313 74.059L75.8251 74.4397C74.2648 74.7513 73.1814 76.7655 73.4051 78.9385L73.4053 78.9406C73.629 81.1136 75.0752 82.6226 76.6355 82.311L78.5417 81.9303C80.1019 81.6187 81.1854 79.6046 80.9617 77.4316L80.9615 77.4294C80.7377 75.2564 79.2916 73.7475 77.7313 74.059Z" fill="#161616"/>
<path d="M99.1586 74.3635L97.2415 74.1092C95.6724 73.9011 94.2793 75.504 94.1298 77.6893L94.1297 77.6915C93.9802 79.8768 95.1311 81.8171 96.7002 82.0252L98.6173 82.2795C100.186 82.4876 101.58 80.8847 101.729 78.6994L101.729 78.6972C101.879 76.5119 100.728 74.5716 99.1586 74.3635Z" fill="#161616"/>
<path d="M47.5723 69.2578L51.3015 71.3268" stroke="#115635" stroke-width="2.58081" stroke-linecap="round" stroke-linejoin="round"/>
<path d="M40.3301 93.5126L44.5942 93.4395" stroke="#115635" stroke-width="2.58081" stroke-linecap="round" stroke-linejoin="round"/>
<path d="M48.6836 119.292L51.9598 116.561" stroke="#115635" stroke-width="2.58081" stroke-linecap="round" stroke-linejoin="round"/>
<path d="M127.921 68.457L124.191 70.5274" stroke="#115635" stroke-width="2.58081" stroke-linecap="round" stroke-linejoin="round"/>
<path d="M136.161 92.7123L131.896 92.6406" stroke="#115635" stroke-width="2.58081" stroke-linecap="round" stroke-linejoin="round"/>
<path d="M126.809 118.495L123.531 115.764" stroke="#115635" stroke-width="2.58081" stroke-linecap="round" stroke-linejoin="round"/>
<path d="M92.5041 94.4141H84.4161C82.564 94.4141 81.0625 95.9155 81.0625 97.7677C81.0625 99.6198 82.564 101.121 84.4161 101.121H92.5041C94.3563 101.121 95.8577 99.6198 95.8577 97.7677C95.8577 95.9155 94.3563 94.4141 92.5041 94.4141Z" fill="#38AD75" fill-opacity="0.8" style="mix-blend-mode:darken"/>
<rect x="77.2363" y="77.8926" width="20.8833" height="16.4868" rx="8.24339" fill="#EB5882"/>
<path d="M86.0312 85.5865C86.0312 85.5865 88.0002 85.5859 89.0989 85.5859" stroke="#B21945" stroke-width="3.29736" stroke-miterlimit="10" stroke-linecap="round"/>
<path d="M83.0848 84.2475C84.1175 83.6513 84.5567 82.4787 84.0658 81.6285C83.5749 80.7783 82.3399 80.5724 81.3072 81.1686C80.2746 81.7647 79.8354 82.9373 80.3263 83.7875C80.8172 84.6377 82.0522 84.8437 83.0848 84.2475Z" fill="#FF8CB0"/>
</g>
<path d="M143.154 54.2423L143.14 54.2508L142.052 52.5422L140.656 50.3496L131.881 56.1385C131.731 56.2372 131.592 56.3514 131.465 56.4783C130.619 57.3241 130.454 58.6438 131.073 59.6163C131.777 60.7199 133.242 61.0392 134.399 60.3633C134.403 60.3696 134.478 60.487 134.478 60.487L134.563 60.5728C135.38 61.3895 136.75 61.5753 137.82 61.0549C138.604 62.0067 140.026 62.197 141.121 61.4734L145.796 58.3909L143.155 54.2432L143.154 54.2423Z" fill="white"/>
<path d="M132.276 57.2906C131.833 57.7333 131.731 58.428 132.069 58.9575C132.456 59.5662 133.277 59.7259 133.901 59.3138L135.366 58.3471C135.378 58.3386 135.392 58.3521 135.384 58.3652C135.149 58.7844 135.14 59.3069 135.407 59.7263C135.926 60.2449 136.87 60.3266 137.507 59.9069L138.318 59.3723C138.373 59.3353 138.446 59.3725 138.444 59.438C138.436 59.7126 138.515 59.9884 138.687 60.2263C139.096 60.7894 139.898 60.8998 140.5 60.5019L144.177 58.0766L142.774 55.8722L142.76 55.8808L141.608 54.0712L140.276 51.9795L132.496 57.1103C132.415 57.1644 132.341 57.2239 132.274 57.2907M130.648 55.6645C130.834 55.4785 131.039 55.3114 131.258 55.1661L139.04 50.0353L141.033 48.721L142.27 50.6643L142.418 50.8972L143.518 52.6231L143.532 52.6145L144.769 54.556L146.173 56.7604L147.41 58.7038L145.416 60.0181L141.738 62.4434C140.386 63.3351 138.694 63.2745 137.505 62.3942C136.325 62.693 135.044 62.464 134.09 61.7412C132.582 62.1753 130.938 61.6265 130.075 60.2718C129.166 58.8453 129.407 56.9069 130.65 55.6645L130.648 55.6645Z" fill="#77A0E0"/>
<path d="M168.934 53.4073L168.948 53.4152L169.958 51.6594L171.254 49.4062L180.281 54.7944C180.435 54.8864 180.579 54.9942 180.712 55.1152C181.595 55.9221 181.819 57.233 181.244 58.2325C180.591 59.3665 179.141 59.7515 177.955 59.1282C177.951 59.1348 177.882 59.2554 177.882 59.2554L177.801 59.345C177.021 60.1976 175.661 60.4448 174.569 59.973C173.828 60.9592 172.417 61.2132 171.29 60.5397L166.482 57.6706L168.933 53.4082L168.934 53.4073Z" fill="white"/>
<path d="M179.938 55.9627C180.4 56.385 180.533 57.0744 180.219 57.6186C179.86 58.244 179.047 58.4406 178.406 58.0569L176.898 57.1571C176.886 57.1492 176.873 57.1633 176.881 57.176C177.134 57.5842 177.167 58.1057 176.919 58.5368C176.425 59.0781 175.485 59.2023 174.83 58.8116L173.996 58.314C173.939 58.2795 173.868 58.32 173.873 58.3853C173.893 58.6594 173.827 58.9383 173.665 59.1838C173.282 59.7647 172.486 59.9111 171.867 59.5407L168.084 57.2833L169.387 55.0179L169.401 55.0259L170.47 53.1663L171.707 51.0169L179.71 55.7925C179.793 55.8429 179.87 55.899 179.94 55.9626M181.491 54.265C181.297 54.0875 181.084 53.9298 180.859 53.7945L172.854 49.019L170.803 47.7957L169.656 49.7927L169.518 50.032L168.497 51.8056L168.482 51.7977L167.334 53.7929L166.031 56.0582L164.883 58.0552L166.934 59.2785L170.717 61.5359C172.108 62.3659 173.795 62.2292 174.943 61.2964C176.136 61.5417 177.406 61.2553 178.326 60.4903C179.852 60.8562 181.47 60.234 182.27 58.8418C183.115 57.3758 182.786 55.4503 181.489 54.2651L181.491 54.265Z" fill="#77A0E0"/>
<path d="M157.502 34.6653L161.268 38.5851L166.923 38.2808C168.202 38.2125 169.26 39.1924 169.185 40.3761L168.856 45.6149L173.087 49.104C174.044 49.8931 174.044 51.2792 173.087 52.0683L168.856 55.5575L169.185 60.7963C169.258 61.9812 168.201 62.9612 166.923 62.8916L161.268 62.5873L157.502 66.507C156.651 67.3941 155.154 67.3941 154.303 66.507L150.537 62.5873L144.882 62.8916C143.603 62.9599 142.545 61.98 142.621 60.7963L142.949 55.5575L138.718 52.0683C137.761 51.2792 137.761 49.8931 138.718 49.104L142.949 45.6149L142.621 40.3761C142.547 39.1911 143.605 38.2112 144.882 38.2808L150.537 38.5851L154.303 34.6653C155.154 33.7782 156.651 33.7782 157.502 34.6653Z" fill="#787878"/>
<path d="M143.028 55.5882L138.73 52.1793C137.757 51.4083 137.757 50.0541 138.73 49.2831L143.028 45.8742L142.695 40.7558C142.62 39.5981 143.694 38.6407 144.993 38.7087L150.738 39.0061L154.564 35.1764C155.43 34.3097 156.95 34.3097 157.815 35.1764L161.642 39.0061L167.387 38.7087C168.686 38.642 169.761 39.5994 169.685 40.7558L169.351 45.8742L173 49" stroke="#525252" stroke-width="2.42069" stroke-linecap="round" stroke-linejoin="round"/>
<path d="M173.089 49.2705C174.043 50.0524 174.043 51.4258 173.089 52.2076L168.875 55.6647L169.202 60.8555C169.275 62.0296 168.222 63.0005 166.949 62.9315L161.317 62.63L157.566 66.5138C156.717 67.3928 155.227 67.3928 154.378 66.5138L150.627 62.63L144.995 62.9315C143.721 62.9992 142.667 62.0283 142.742 60.8555L143 56" stroke="#525252" stroke-width="2.42069" stroke-linecap="round" stroke-linejoin="round"/>
<rect x="151" y="48" width="10" height="4" rx="2" fill="#626060"/>
<path d="M150 45C150.717 45 159.563 45 161.207 45" stroke="#3A3A3A" stroke-width="2.50138" stroke-linecap="round"/>
<path d="M149 48.5884L152.433 48.2334" stroke="#3A3A3A" stroke-width="2.46688" stroke-miterlimit="10" stroke-linecap="round"/>
<path d="M162.199 48.7661L158.766 48.4111" stroke="#3A3A3A" stroke-width="2.46688" stroke-miterlimit="10" stroke-linecap="round"/>
<path d="M193 117C193 112.559 189.5 108.964 185.176 108.964C184.344 108.964 183.544 109.097 182.792 109.346C181.119 106.167 177.838 104 174.072 104C170.079 104 166.652 106.432 165.084 109.919C164.47 109.745 163.824 109.645 163.161 109.645C159.209 109.645 156 112.941 156 117H193Z" fill="#E1F8FF" stroke="#85DAF5" stroke-width="2.58" stroke-linecap="round" stroke-linejoin="round"/>
<defs>
<clipPath id="clip0_231_13170">
<rect width="143" height="99" fill="white" transform="translate(10 47)"/>
</clipPath>
<clipPath id="clip1_231_13170">
<rect width="48.36" height="18.24" fill="white" transform="translate(14 55)"/>
</clipPath>
</defs>
</svg>
