<svg width="206" height="168" viewBox="0 0 206 168" fill="none" xmlns="http://www.w3.org/2000/svg">
<path d="M94.6402 64.0202C94.6402 60.5902 91.8602 57.8102 88.4302 57.8102H86.7802C86.1102 55.6002 84.0602 53.9902 81.6302 53.9902H79.3902C76.9602 53.9902 74.9102 55.6002 74.2402 57.8102H72.6202C69.1902 57.8102 66.4102 60.5902 66.4102 64.0202C66.4102 65.3802 66.8502 66.6402 67.5902 67.6602C67.5502 67.9602 67.5202 68.2602 67.5202 68.5602C67.5202 71.0402 68.9802 73.1802 71.0802 74.1802C71.8802 74.5602 72.7802 74.7702 73.7302 74.7702H76.3202C77.9402 74.7702 79.4202 74.1502 80.5202 73.1302C81.6302 74.1502 83.1002 74.7702 84.7202 74.7702H87.3102C90.7402 74.7702 93.5202 71.9902 93.5202 68.5602C93.5202 68.2502 93.5002 67.9502 93.4502 67.6602C94.1902 66.6402 94.6302 65.3802 94.6302 64.0202H94.6402Z" fill="#C7D0D8" stroke="#434851" stroke-width="2.58" stroke-linecap="round" stroke-linejoin="round"/>
<path d="M60.5607 111.829C57.1207 107.099 50.4907 106.049 45.7507 109.499L39.4407 114.089C34.7107 117.529 33.6607 124.159 37.1107 128.899C40.5507 133.629 47.1807 134.679 51.9207 131.229L58.2307 126.639C62.9607 123.199 64.0107 116.569 60.5607 111.829Z" fill="#C969EB"/>
<path d="M60.3497 112.429C56.9097 107.699 50.2797 106.649 45.5397 110.099L39.2297 114.689C34.4997 118.129 33.4497 124.759 36.8997 129.499C40.3397 134.229 46.9697 135.279 51.7097 131.829L58.0197 127.239C62.7497 123.789 63.7997 117.169 60.3497 112.429Z" fill="#B5BFC6"/>
<path d="M60.5607 111.829C57.1207 107.099 50.4907 106.049 45.7507 109.499L39.4407 114.089C34.7107 117.529 33.6607 124.159 37.1107 128.899C40.5507 133.629 47.1807 134.679 51.9207 131.229L58.2307 126.639C62.9607 123.199 64.0107 116.569 60.5607 111.829Z" stroke="#434851" stroke-width="2.58" stroke-linecap="round" stroke-linejoin="round"/>
<path d="M60.3497 112.429C56.9097 107.699 50.2797 106.649 45.5397 110.099L39.2297 114.689C34.4997 118.129 33.4497 124.759 36.8997 129.499C40.3397 134.229 46.9697 135.279 51.7097 131.829L58.0197 127.239C62.7497 123.789 63.7997 117.169 60.3497 112.429Z" stroke="#434851" stroke-width="2.58" stroke-linecap="round" stroke-linejoin="round"/>
<path d="M92.4203 120.709C87.8903 117.009 81.2103 117.679 77.5103 122.219L72.5803 128.259C68.8803 132.789 69.5503 139.469 74.0903 143.169C78.6203 146.869 85.3003 146.199 89.0003 141.659L93.9303 135.619C97.6303 131.089 96.9603 124.409 92.4203 120.709Z" fill="#C969EB"/>
<path d="M92.3598 121.34C87.8298 117.64 81.1498 118.31 77.4498 122.85L72.5198 128.89C68.8198 133.42 69.4898 140.1 74.0298 143.8C78.5598 147.5 85.2398 146.83 88.9398 142.29L93.8698 136.25C97.5698 131.71 96.8998 125.04 92.3598 121.34Z" fill="#B5BFC6"/>
<path d="M92.4203 120.709C87.8903 117.009 81.2103 117.679 77.5103 122.219L72.5803 128.259C68.8803 132.789 69.5503 139.469 74.0903 143.169C78.6203 146.869 85.3003 146.199 89.0003 141.659L93.9303 135.619C97.6303 131.089 96.9603 124.409 92.4203 120.709Z" stroke="#434851" stroke-width="2.58" stroke-linecap="round" stroke-linejoin="round"/>
<path d="M92.3598 121.34C87.8298 117.64 81.1498 118.31 77.4498 122.85L72.5198 128.89C68.8198 133.42 69.4898 140.1 74.0298 143.8C78.5598 147.5 85.2398 146.83 88.9398 142.29L93.8698 136.25C97.5698 131.71 96.8998 125.04 92.3598 121.34Z" stroke="#434851" stroke-width="2.58" stroke-linecap="round" stroke-linejoin="round"/>
<path d="M122.96 98.3394C122.96 97.6494 122.94 96.9694 122.9 96.2894C121.84 78.7494 107.28 64.8594 89.4798 64.8594H71.5698C53.0798 64.8594 38.0898 79.8494 38.0898 98.3394V100.599C38.0898 119.089 53.0798 134.079 71.5698 134.079H89.4798C107.97 134.079 122.96 119.089 122.96 100.599" fill="#C7D0D8"/>
<path d="M122.96 98.3394C122.96 97.6494 122.94 96.9694 122.9 96.2894C121.84 78.7494 107.28 64.8594 89.4798 64.8594H71.5698C53.0798 64.8594 38.0898 79.8494 38.0898 98.3394V100.599C38.0898 119.089 53.0798 134.079 71.5698 134.079H89.4798C107.97 134.079 122.96 119.089 122.96 100.599" stroke="#2DA04B" stroke-width="0.07" stroke-miterlimit="10"/>
<path d="M111.989 98.2405C111.989 97.8105 111.979 97.3805 111.949 96.9605C111.229 85.9505 101.359 77.2305 89.2892 77.2305H77.1492C64.6092 77.2305 54.4492 86.6405 54.4492 98.2405V99.6605C54.4492 111.26 64.6092 120.67 77.1492 120.67H89.2892C101.829 120.67 111.989 111.26 111.989 99.6605" fill="#8DBDCE"/>
<path d="M111.989 98.6213C111.989 98.1913 111.979 97.7613 111.949 97.3413C111.229 86.3313 101.359 77.6113 89.2892 77.6113H77.1492C64.6092 77.6113 54.4492 87.0213 54.4492 98.6213V100.041C54.4492 111.641 64.6092 121.051 77.1492 121.051H89.2892C101.829 121.051 111.989 111.641 111.989 100.041" stroke="#394D63" stroke-width="2.58" stroke-linecap="round" stroke-linejoin="round"/>
<path d="M71.3208 66.0703C71.3208 66.0703 38.7008 75.2703 46.9308 109.25C46.9308 109.25 50.3608 127.93 77.8508 133.86" stroke="#A9AEB5" stroke-width="2.58" stroke-linecap="round" stroke-linejoin="round"/>
<path d="M92.6698 90.6309H91.1298C89.8598 90.6309 88.8398 92.2309 88.8398 94.2009C88.8398 96.1709 89.8698 97.7709 91.1298 97.7709H92.6698C93.9398 97.7709 94.9598 96.1709 94.9598 94.2009C94.9598 92.2309 93.9298 90.6309 92.6698 90.6309Z" fill="#212121"/>
<path d="M75.3105 90.6309H73.7705C72.5005 90.6309 71.4805 92.2309 71.4805 94.2009C71.4805 96.1709 72.5105 97.7709 73.7705 97.7709H75.3105C76.5805 97.7709 77.6005 96.1709 77.6005 94.2009C77.6005 92.2309 76.5705 90.6309 75.3105 90.6309Z" fill="#212121"/>
<path d="M71.3203 86.8705L75.1603 84.3105" stroke="#597566" stroke-width="4.4" stroke-miterlimit="10" stroke-linecap="round"/>
<path d="M95.2697 86.8705L91.4297 84.3105" stroke="#597566" stroke-width="4.4" stroke-miterlimit="10" stroke-linecap="round"/>
<path d="M85.5404 94.2109H81.1404C76.5896 94.2109 72.9004 97.9001 72.9004 102.451V102.461C72.9004 107.012 76.5896 110.701 81.1404 110.701H85.5404C90.0912 110.701 93.7804 107.012 93.7804 102.461V102.451C93.7804 97.9001 90.0912 94.2109 85.5404 94.2109Z" fill="#C1748E"/>
<path d="M78.7514 100.561C79.7814 99.9612 80.2214 98.7912 79.7314 97.9412C79.2414 97.0912 78.0014 96.8812 76.9714 97.4812C75.9414 98.0812 75.5014 99.2512 75.9914 100.101C76.4814 100.951 77.7214 101.161 78.7514 100.561Z" fill="#FF8CB0"/>
<path d="M83.3505 100.191H83.3405C81.899 100.191 80.7305 101.36 80.7305 102.801V102.811C80.7305 104.253 81.899 105.421 83.3405 105.421H83.3505C84.7919 105.421 85.9605 104.253 85.9605 102.811V102.801C85.9605 101.36 84.7919 100.191 83.3505 100.191Z" fill="#A55B74"/>
<path d="M122.88 96.1992C123.13 96.9992 122.99 100.939 122.88 102.809C121.69 120.219 107.19 133.959 89.4803 133.959H71.5703C60.6103 133.959 50.8803 128.699 44.7803 120.559C43.8803 119.269 42.0703 116.599 42.0703 116.199" stroke="#434851" stroke-width="2.58" stroke-linecap="round" stroke-linejoin="round"/>
<path d="M122.89 96.0305C121.76 78.5605 107.24 64.7305 89.4798 64.7305H71.5698C53.0798 64.7305 38.0898 79.7205 38.0898 98.2105V100.47C38.0898 106.01 39.4398 111.24 41.8198 115.85" stroke="#434851" stroke-width="2.58" stroke-linecap="round" stroke-linejoin="round"/>
<path d="M46.9391 94.4309C47.9884 94.4309 48.8391 93.5802 48.8391 92.5309C48.8391 91.4815 47.9884 90.6309 46.9391 90.6309C45.8897 90.6309 45.0391 91.4815 45.0391 92.5309C45.0391 93.5802 45.8897 94.4309 46.9391 94.4309Z" stroke="#434851" stroke-width="2.58" stroke-linecap="round" stroke-linejoin="round"/>
<path d="M117.41 94.4309C118.459 94.4309 119.31 93.5802 119.31 92.5309C119.31 91.4815 118.459 90.6309 117.41 90.6309C116.36 90.6309 115.51 91.4815 115.51 92.5309C115.51 93.5802 116.36 94.4309 117.41 94.4309Z" stroke="#434851" stroke-width="2.58" stroke-linecap="round" stroke-linejoin="round"/>
<path d="M124.432 33.2808L128.543 35.6908L133.303 35.3508C134.673 35.2508 135.752 36.5008 135.452 37.8408L134.433 42.5008L136.233 46.9208C136.753 48.1908 135.892 49.6008 134.532 49.7408L129.782 50.2108L126.132 53.2808C125.082 54.1608 123.483 53.7908 122.933 52.5308L121.022 48.1608L116.973 45.6408C115.803 44.9208 115.663 43.2708 116.693 42.3608L120.263 39.1908L121.403 34.5608C121.733 33.2308 123.253 32.5908 124.432 33.2808Z" fill="#FFD362" stroke="#EC8E4A" stroke-width="2.58" stroke-linecap="round" stroke-linejoin="round"/>
<path d="M20.2812 62.5734L23.8412 61.9634L26.4312 59.4434C27.1712 58.7134 28.4112 58.9134 28.8912 59.8334L30.5712 63.0334L33.7712 64.7134C34.6912 65.1934 34.8812 66.4334 34.1612 67.1734L31.6412 69.7634L31.0312 73.3234C30.8512 74.3434 29.7412 74.9134 28.8112 74.4534L25.5712 72.8534L22.0012 73.3734C20.9712 73.5234 20.0912 72.6434 20.2412 71.6134L20.7612 68.0434L19.1612 64.8034C18.7012 63.8734 19.2712 62.7634 20.2912 62.5834L20.2812 62.5734Z" fill="#FFD362" stroke="#EC8E4A" stroke-width="2.58" stroke-linecap="round" stroke-linejoin="round"/>
<path d="M156.494 58.8771C165.314 56.2941 174.57 61.3567 177.153 70.1762L182.257 87.6042L150.289 96.9664L145.185 79.5385C142.602 70.7189 147.665 61.4629 156.484 58.8799L156.494 58.8771Z" fill="#8DBDCE" stroke="#61819E" stroke-width="2.58"/>
<path d="M160.132 68.0636L163.801 70.1671L167.965 68.6973C168.911 68.3682 169.912 68.8671 170.113 69.7669L171.01 73.7555L174.941 75.4384C175.833 75.813 176.136 76.8494 175.591 77.6552L173.188 81.1931L174.584 85.0356C174.901 85.9016 174.32 86.8739 173.353 87.0945L169.054 88.1037L167.099 91.8543C166.66 92.702 165.537 93.0308 164.709 92.5541L161.04 90.4506L156.876 91.9204C155.93 92.2495 154.929 91.7506 154.728 90.8508L153.831 86.8622L149.9 85.1793C149.008 84.8047 148.705 83.7683 149.25 82.9624L151.653 79.4246L150.257 75.5821C149.941 74.7161 150.521 73.7438 151.488 73.5232L155.787 72.514L157.742 68.7634C158.181 67.9157 159.304 67.5869 160.132 68.0636Z" fill="#787878"/>
<path d="M154.232 86.5578L150.27 84.9466C149.372 84.5844 149.074 83.5671 149.634 82.7777L152.102 79.2833L150.731 75.5273C150.42 74.6804 151.016 73.7245 152.002 73.4982L156.366 72.4598L158.388 68.7624C158.84 67.9215 159.982 67.587 160.816 68.0513L164.514 70.0736L168.748 68.5937C169.704 68.2618 170.718 68.7359 170.913 69.6165L171.785 73.5187L174.985 75.0512" stroke="#434851" stroke-width="2.58" stroke-linecap="round" stroke-linejoin="round"/>
<path d="M175.325 75.2537C176.207 75.6311 176.508 76.658 175.969 77.4514L173.577 80.9548L174.953 84.7617C175.266 85.6182 174.693 86.578 173.719 86.8111L169.439 87.8146L167.488 91.5432C167.046 92.3813 165.932 92.7073 165.108 92.2402L161.454 90.1531L157.308 91.6173C156.372 91.9435 155.375 91.4542 155.164 90.5572L154.459 86.7624" stroke="#434851" stroke-width="2.58" stroke-linecap="round" stroke-linejoin="round"/>
<path d="M159.413 79.7673L165.776 77.9038C166.851 77.5891 167.967 78.1998 168.282 79.2747C168.597 80.3495 167.986 81.4662 166.911 81.781L160.548 83.6444C159.474 83.9592 158.357 83.3485 158.042 82.2736C157.727 81.1988 158.338 80.0821 159.413 79.7673Z" fill="#626060"/>
<path d="M156.794 79.5749C156.448 78.3945 157.129 77.1634 158.3 76.8205C159.471 76.4776 160.712 77.1562 161.055 78.327L161.698 80.5247C162.044 81.7051 161.363 82.9363 160.192 83.2792C159.021 83.6221 157.78 82.9434 157.437 81.7726L156.794 79.5749Z" fill="white"/>
<path d="M158.941 76.6326L157.857 76.9502C156.686 77.2931 156.014 78.5215 156.357 79.6923L157.251 82.7441" stroke="#333333" stroke-width="2.1" stroke-linecap="round"/>
<path d="M164.048 77.4499C163.702 76.2695 164.383 75.0384 165.554 74.6955C166.725 74.3526 167.966 75.0312 168.309 76.202L168.952 78.3997C169.298 79.5801 168.616 80.8113 167.446 81.1542C166.275 81.4971 165.034 80.8184 164.691 79.6476L164.048 77.4499Z" fill="white"/>
<path d="M158.2 79.6446C157.992 78.9345 158.402 78.1996 159.102 77.9944C159.803 77.7893 160.547 78.1964 160.753 78.897L161.138 80.2118C161.346 80.922 160.936 81.6568 160.235 81.862C159.534 82.0672 158.79 81.66 158.585 80.9594L158.2 79.6446Z" fill="#333333"/>
<path d="M165.501 76.1077C166.211 75.8997 166.946 76.3097 167.151 77.0103L167.536 78.3251C167.744 79.0352 167.334 79.7701 166.633 79.9753C165.923 80.1833 165.188 79.7733 164.983 79.0727L164.598 77.7579C164.39 77.0477 164.8 76.3129 165.501 76.1077Z" fill="#333333"/>
<path d="M164.701 74.9464L165.785 74.6288C166.956 74.2859 168.185 74.9577 168.527 76.1285L169.421 79.1803" stroke="#333333" stroke-width="2.1" stroke-linecap="round"/>
<path d="M180.266 83.6219L149.815 92.5401L144.304 104.355C145.501 108.444 156.733 106.946 169.708 103.146C182.683 99.3464 192.478 94.6856 191.281 90.5973L180.266 83.6219Z" fill="#FFD362" stroke="#97511E" stroke-width="2.58" stroke-linecap="round" stroke-linejoin="round"/>
<path d="M154.238 71.7172C155.282 69.8081 154.923 67.6009 153.435 66.7873C151.948 65.9737 149.896 66.8618 148.851 68.7709C147.807 70.68 148.167 72.8872 149.654 73.7008C151.142 74.5144 153.194 73.6263 154.238 71.7172Z" fill="#EDEDED" style="mix-blend-mode:overlay"/>
<path d="M72.4995 91.262C75.1043 88.6572 75.5729 84.9026 73.546 82.8758C71.5192 80.8489 67.7646 81.3175 65.1598 83.9223C62.555 86.5271 62.0864 90.2817 64.1132 92.3086C66.1401 94.3354 69.8947 93.8668 72.4995 91.262Z" fill="#EDEDED" style="mix-blend-mode:overlay"/>
</svg>
