<svg width="92" height="92" viewBox="0 0 92 92" fill="none" xmlns="http://www.w3.org/2000/svg">
<path d="M84.9482 51.6554C84.9482 51.0341 84.9291 50.4166 84.8926 49.803C83.9358 33.9349 70.7638 21.3612 54.6541 21.3612H38.4466C21.7156 21.3612 8.15247 34.9243 8.15247 51.6554V53.7033C8.15247 70.4343 21.7156 83.9975 38.4466 83.9975H54.6541C71.3851 83.9975 84.9482 70.4343 84.9482 53.7033" fill="#DFDFDF"/>
<path d="M19.6968 72.332C15.6852 67.1947 13.2959 60.7286 13.2959 53.7064V51.6584C13.2959 34.9274 26.859 21.3643 43.59 21.3643H49.5116C66.2426 21.3643 79.8057 34.9274 79.8057 51.6584V53.7064C79.8057 54.7917 79.7482 55.8637 79.637 56.9203" stroke="#CDCDCD" stroke-width="4" stroke-linecap="round" stroke-linejoin="round"/>
<path d="M79 62C75.3091 74.1344 63.6237 83 49.7827 83H43.8341C36.722 83 30.1819 80.6607 25 76.7397" stroke="#CDCDCD" stroke-width="4" stroke-linecap="round" stroke-linejoin="round"/>
<path d="M63.96 37.6152C60.4604 28.7444 54.046 22.8018 46.7112 22.8018C35.6314 22.8018 26.6475 36.3649 26.6475 53.0959C26.6475 61.401 28.8604 68.9237 32.4443 74.3965" stroke="#CDCDCD" stroke-width="4" stroke-linecap="round" stroke-linejoin="round"/>
<path d="M38 78.9418C40.6858 80.8997 43.7113 82 46.9135 82C58.0059 82 67 68.7866 67 52.487C67 49.5372 66.7063 46.6883 66.1572 44" stroke="#CDCDCD" stroke-width="4" stroke-linecap="round" stroke-linejoin="round"/>
<path d="M46.5498 45.1055V70.0534V82.6845" stroke="#CDCDCD" stroke-width="4" stroke-linecap="round" stroke-linejoin="round"/>
<path d="M46.5498 22.4639V37.6148" stroke="#CDCDCD" stroke-width="4" stroke-linecap="round" stroke-linejoin="round"/>
<path d="M58.4704 39.5917L54.0701 38.8786" stroke="#888888" stroke-width="4.1087" stroke-miterlimit="10" stroke-linecap="round"/>
<path d="M34.0003 39.5917L38.4006 38.8786" stroke="#888888" stroke-width="4.1087" stroke-miterlimit="10" stroke-linecap="round"/>
<path d="M84.8831 49.571C83.8649 33.7624 70.7198 21.2539 54.6523 21.2539H38.4448C21.7138 21.2539 8.15063 34.817 8.15063 51.5481V53.596C8.15063 58.6125 9.37022 63.3432 11.5275 67.5101" stroke="#7C7C7C" stroke-width="2.5" stroke-linecap="round" stroke-linejoin="round"/>
<path d="M11.5 67.5C11.5 67.9 13.3021 70.5093 14.2031 71.7639C19.7296 79.1275 28.5333 83.8927 38.4492 83.8927H54.6567C70.6801 83.8927 83.7983 71.4513 84.8779 55.7021V50" stroke="#7C7C7C" stroke-width="2.5" stroke-miterlimit="10" stroke-linecap="round"/>
<path d="M59.3225 17.0779C59.3225 13.9752 56.8066 11.4593 53.704 11.4593H52.2082C51.6042 9.45737 49.7461 8 47.5485 8H45.5178C43.3202 8 41.462 9.45737 40.858 11.4593H39.393C36.2903 11.4593 33.7744 13.9752 33.7744 17.0779C33.7744 18.309 34.1714 19.4461 34.8425 20.3723C34.8042 20.6389 34.7831 20.9131 34.7831 21.1911C34.7831 23.4366 36.1005 25.3734 38.0027 26.2727C38.7295 26.616 39.5425 26.8097 40.4016 26.8097H42.7449C44.2119 26.8097 45.5484 26.2459 46.5475 25.3255C47.5485 26.2459 48.8831 26.8097 50.3501 26.8097H52.6934C55.7961 26.8097 58.3119 24.2938 58.3119 21.1911C58.3119 20.9131 58.2908 20.6408 58.2525 20.3723C58.9237 19.4461 59.3206 18.309 59.3206 17.0779H59.3225Z" fill="#DADADA" stroke="#7C7C7C" stroke-width="2.5" stroke-miterlimit="10" stroke-linecap="round"/>
<path d="M48.0919 15.167H45.0065C43.6276 15.167 42.5098 16.2848 42.5098 17.6637C42.5098 19.0426 43.6276 20.1604 45.0065 20.1604H48.0919C49.4708 20.1604 50.5886 19.0426 50.5886 17.6637C50.5886 16.2848 49.4708 15.167 48.0919 15.167Z" fill="#9F9F9F"/>
<path d="M43.5248 56.0185C44.5228 55.4422 44.9475 54.3091 44.4732 53.4876C43.9989 52.6661 42.8053 52.4673 41.8072 53.0435C40.8091 53.6198 40.3845 54.7529 40.8588 55.5744C41.3331 56.3959 42.5267 56.5947 43.5248 56.0185Z" fill="#C8C8C8"/>
<path d="M37.4084 43.8604H35.6351C34.1798 43.8604 33 45.6999 33 47.969C33 50.2382 34.1798 52.0777 35.6351 52.0777H37.4084C38.8637 52.0777 40.0435 50.2382 40.0435 47.969C40.0435 45.6999 38.8637 43.8604 37.4084 43.8604Z" fill="#6B6B6B"/>
<path d="M57.3644 43.8604H55.5912C54.1358 43.8604 52.9561 45.6999 52.9561 47.969C52.9561 50.2382 54.1358 52.0777 55.5912 52.0777H57.3644C58.8198 52.0777 59.9995 50.2382 59.9995 47.969C59.9995 45.6999 58.8198 43.8604 57.3644 43.8604Z" fill="#6B6B6B"/>
<path d="M9.55273 30.4971L12.9258 32.3706" stroke="#7C7C7C" stroke-width="2.5" stroke-linecap="round" stroke-linejoin="round"/>
<path d="M3 52.446L6.8582 52.3789" stroke="#7C7C7C" stroke-width="2.5" stroke-linecap="round" stroke-linejoin="round"/>
<path d="M10.5596 75.7735L13.5242 73.3018" stroke="#7C7C7C" stroke-width="2.5" stroke-linecap="round" stroke-linejoin="round"/>
<path d="M82.2539 29.7734L78.8789 31.6469" stroke="#7C7C7C" stroke-width="2.5" stroke-linecap="round" stroke-linejoin="round"/>
<path d="M88.8063 51.7224L84.9481 51.6553" stroke="#7C7C7C" stroke-width="2.5" stroke-linecap="round" stroke-linejoin="round"/>
<path d="M81.2468 75.0509L78.2822 72.5791" stroke="#7C7C7C" stroke-width="2.5" stroke-linecap="round" stroke-linejoin="round"/>
<rect x="39" y="51" width="15" height="15" rx="7.5" fill="#A8A8A8"/>
<path d="M43.5248 57.0185C44.5228 56.4422 44.9475 55.3091 44.4732 54.4876C43.9989 53.6661 42.8053 53.4673 41.8072 54.0435C40.8091 54.6198 40.3845 55.7529 40.8588 56.5744C41.3331 57.3959 42.5267 57.5947 43.5248 57.0185Z" fill="#C8C8C8"/>
<circle cx="46.5" cy="58.5" r="2.5" fill="#636363"/>
</svg>
