<svg width="80" height="80" viewBox="0 0 80 80" fill="none" xmlns="http://www.w3.org/2000/svg">
<path d="M42.7568 17.8257L48.7158 24.0883L57.663 23.6021C59.6868 23.4929 61.3604 25.0586 61.2415 26.9497L60.7218 35.3198L67.4163 40.8944C68.9313 42.1551 68.9313 44.3697 67.4163 45.6305L60.7218 51.205L61.2415 59.5751C61.3582 61.4683 59.6846 63.0339 57.663 62.9227L48.7158 62.4365L42.7568 68.6991C41.4091 70.1165 39.0419 70.1165 37.6942 68.6991L31.7352 62.4365L22.788 62.9227C20.7642 63.0319 19.0906 61.4662 19.2095 59.5751L19.7292 51.205L13.0347 45.6305C11.5197 44.3697 11.5197 42.1551 13.0347 40.8944L19.7292 35.3198L19.2095 26.9497C19.0928 25.0565 20.7664 23.4909 22.788 23.6021L31.7352 24.0883L37.6942 17.8257C39.0419 16.4084 41.4091 16.4084 42.7568 17.8257Z" fill="#787878"/>
<path d="M19.8548 51.2537L13.053 45.8073C11.5136 44.5755 11.5136 42.4119 13.053 41.1801L19.8548 35.7337L19.3268 27.5561C19.2082 25.7064 20.9087 24.1768 22.9626 24.2855L32.0534 24.7605L38.1079 18.6418C39.4773 17.2571 41.8825 17.2571 43.2518 18.6418L49.3064 24.7605L58.3972 24.2855C60.4534 24.1788 62.1538 25.7084 62.033 27.5561L61.505 35.7337L67.2848 41.0968" stroke="#464646" stroke-width="2.09776" stroke-linecap="round" stroke-linejoin="round"/>
<path d="M67.4219 41.1595C68.931 42.4087 68.931 44.603 67.4219 45.8522L60.7536 51.3756L61.2713 59.6688C61.3876 61.5447 59.7205 63.096 57.7069 62.9857L48.7947 62.504L42.859 68.7092C41.5166 70.1135 39.1586 70.1135 37.8162 68.7092L31.8805 62.504L22.9683 62.9857C20.9525 63.0939 19.2854 61.5426 19.4039 59.6688L19.9322 51.769" stroke="#464646" stroke-width="2.09776" stroke-linecap="round" stroke-linejoin="round"/>
<rect x="29.655" y="41.5236" width="20.2942" height="7.68443" rx="3.84222" fill="#626060"/>
<path d="M28.8108 39.7753C28.8108 37.4403 30.7037 35.5474 33.0388 35.5474C35.3738 35.5474 37.2667 37.4403 37.2667 39.7753V44.1268C37.2667 46.4618 35.3738 48.3548 33.0388 48.3548C30.7037 48.3548 28.8108 46.4618 28.8108 44.1268V39.7753Z" fill="white"/>
<path d="M34.3068 35.5474H32.1604C29.8432 35.5474 27.9648 37.4258 27.9648 39.7429V45.7933" stroke="#333333" stroke-width="2.09776" stroke-linecap="round"/>
<path d="M43.1871 39.7753C43.1871 37.4403 45.0801 35.5474 47.4151 35.5474C49.7501 35.5474 51.6431 37.4403 51.6431 39.7753V44.1268C51.6431 46.4618 49.7501 48.3548 47.4151 48.3548C45.0801 48.3548 43.1871 46.4618 43.1871 44.1268V39.7753Z" fill="white"/>
<path d="M31.3469 40.6443C31.3469 39.2433 32.4827 38.1075 33.8837 38.1075C35.2847 38.1075 36.4205 39.2433 36.4205 40.6443V43.2552C36.4205 44.6562 35.2847 45.792 33.8837 45.792C32.4827 45.792 31.3469 44.6562 31.3469 43.2552V40.6443Z" fill="#333333"/>
<rect x="44.0312" y="38.1075" width="5.07356" height="7.68443" rx="2.53678" fill="#333333"/>
<path d="M45.7225 35.5474H47.8689C50.1861 35.5474 52.0645 37.4258 52.0645 39.7429V45.7933" stroke="#333333" stroke-width="2.09776" stroke-linecap="round"/>
<path d="M31.3469 32.1312C32.4818 32.1312 46.4787 32.1312 49.0795 32.1312" stroke="#333333" stroke-width="2.51731" stroke-linecap="round"/>
</svg>
