<svg width="80" height="80" viewBox="0 0 80 80" fill="none" xmlns="http://www.w3.org/2000/svg">
<path d="M73.8677 44.9179C73.8677 44.3777 73.851 43.8407 73.8193 43.3072C72.9873 29.5088 61.5334 18.5752 47.525 18.5752H33.4315C18.8828 18.5752 7.08875 30.3692 7.08875 44.9179V46.6988C7.08875 61.2475 18.8828 73.0415 33.4315 73.0415H47.525C62.0737 73.0415 73.8677 61.2475 73.8677 46.6988" fill="#66DAA2"/>
<path d="M17.1274 62.8975C13.6391 58.4304 11.5614 52.8076 11.5614 46.7014V44.9205C11.5614 30.3718 23.3554 18.5778 37.9041 18.5778H43.0533C57.602 18.5778 69.396 30.3718 69.396 44.9205V46.7014C69.396 47.6451 69.346 48.5773 69.2493 49.496" stroke="#4FC58C" stroke-width="3.45763" stroke-linecap="round" stroke-linejoin="round"/>
<path d="M68.6954 53.9132C65.4859 64.4648 55.3247 72.1741 43.2891 72.1741H38.1164C31.9319 72.1741 26.2449 70.1399 21.7389 66.7304" stroke="#4FC58C" stroke-width="3.45763" stroke-linecap="round" stroke-linejoin="round"/>
<path d="M55.6171 32.709C52.5739 24.9953 46.9962 19.8278 40.6182 19.8278C30.9835 19.8278 23.1714 31.6218 23.1714 46.1705C23.1714 53.3923 25.0956 59.9338 28.2122 64.6928" stroke="#4FC58C" stroke-width="3.45763" stroke-linecap="round" stroke-linejoin="round"/>
<path d="M33.0432 68.6452C35.3787 70.3477 38.0096 71.3045 40.7941 71.3045C50.4396 71.3045 58.2606 59.8145 58.2606 45.641C58.2606 43.0759 58.0052 40.5986 57.5278 38.261" stroke="#4FC58C" stroke-width="3.45763" stroke-linecap="round" stroke-linejoin="round"/>
<path d="M40.4778 39.2223V60.9161V71.8998" stroke="#4FC58C" stroke-width="3.45763" stroke-linecap="round" stroke-linejoin="round"/>
<path d="M40.4778 19.5339V32.7086" stroke="#4FC58C" stroke-width="3.45763" stroke-linecap="round" stroke-linejoin="round"/>
<path d="M30.426 33.0436L33.6519 35.1929" stroke="#36805C" stroke-width="3.55158" stroke-miterlimit="10" stroke-linecap="round"/>
<path d="M50.5438 33.0433L47.3179 35.1926" stroke="#36805C" stroke-width="3.55158" stroke-miterlimit="10" stroke-linecap="round"/>
<path d="M73.8109 43.1054C72.9255 29.3587 61.495 18.4818 47.5232 18.4818H33.4298C18.8811 18.4818 7.08704 30.2758 7.08704 44.8245V46.6054C7.08704 50.9675 8.14755 55.0812 10.0235 58.7046" stroke="#115635" stroke-width="2.16102" stroke-linecap="round" stroke-linejoin="round"/>
<path d="M9.99976 58.6958C9.99976 59.0436 11.5668 61.3125 12.3503 62.4035C17.156 68.8066 24.8113 72.9503 33.4338 72.9503H47.5273C61.4607 72.9503 72.8679 62.1317 73.8067 48.4368V43.4784" stroke="#115635" stroke-width="2.16102" stroke-miterlimit="10" stroke-linecap="round"/>
<path d="M51.5845 14.8505C51.5845 12.1525 49.3968 9.96479 46.6988 9.96479H45.3982C44.8729 8.22394 43.2572 6.95667 41.3462 6.95667H39.5804C37.6695 6.95667 36.0537 8.22394 35.5284 9.96479H34.2545C31.5565 9.96479 29.3688 12.1525 29.3688 14.8505C29.3688 15.921 29.7139 16.9098 30.2976 17.7152C30.2642 17.947 30.2459 18.1854 30.2459 18.4272C30.2459 20.3798 31.3914 22.064 33.0455 22.846C33.6775 23.1445 34.3845 23.3129 35.1316 23.3129H37.1692C38.4448 23.3129 39.6071 22.8227 40.4758 22.0223C41.3462 22.8227 42.5068 23.3129 43.7824 23.3129H45.8201C48.518 23.3129 50.7058 21.1252 50.7058 18.4272C50.7058 18.1854 50.6874 17.9486 50.6541 17.7152C51.2377 16.9098 51.5828 15.921 51.5828 14.8505H51.5845Z" fill="#FFD362" stroke="#97511E" stroke-width="2.16102" stroke-miterlimit="10" stroke-linecap="round"/>
<path d="M41.8187 13.1888H39.1358C37.9367 13.1888 36.9647 14.1609 36.9647 15.3599C36.9647 16.5589 37.9367 17.5309 39.1358 17.5309H41.8187C43.0178 17.5309 43.9898 16.5589 43.9898 15.3599C43.9898 14.1609 43.0178 13.1888 41.8187 13.1888Z" fill="#EF5B62"/>
<path d="M45.1919 56.7235H35.7413C32.8892 56.7235 30.4913 54.5821 30.1703 51.7476C29.8473 48.9132 31.705 46.2902 34.4846 45.6501C35.0659 45.517 40.3335 44.3797 46.3312 45.6247C49.146 46.208 51.0643 48.8271 50.7707 51.6889C50.4771 54.5488 48.0674 56.7235 45.1919 56.7235Z" fill="#EB5882"/>
<path d="M37.2509 51.3273C37.2509 51.3273 40.4865 50.378 44.0472 51.3273" stroke="#B31945" stroke-width="2.53685" stroke-miterlimit="10" stroke-linecap="round"/>
<path d="M35.0858 49.8736C35.9537 49.3725 36.3229 48.3872 35.9105 47.6728C35.498 46.9585 34.4601 46.7856 33.5922 47.2867C32.7243 47.7878 32.3551 48.7731 32.7675 49.4874C33.18 50.2018 34.2179 50.3747 35.0858 49.8736Z" fill="#FF8CB0"/>
<path d="M32.5287 38.1395H30.9867C29.7212 38.1395 28.6953 39.7391 28.6953 41.7123C28.6953 43.6855 29.7212 45.2851 30.9867 45.2851H32.5287C33.7942 45.2851 34.8201 43.6855 34.8201 41.7123C34.8201 39.7391 33.7942 38.1395 32.5287 38.1395Z" fill="#161616"/>
<path d="M49.8818 38.1395H48.3399C47.0744 38.1395 46.0485 39.7391 46.0485 41.7123C46.0485 43.6855 47.0744 45.2851 48.3399 45.2851H49.8818C51.1473 45.2851 52.1732 43.6855 52.1732 41.7123C52.1732 39.7391 51.1473 38.1395 49.8818 38.1395Z" fill="#161616"/>
<path d="M8.3064 26.5193L11.2395 28.1484" stroke="#115635" stroke-width="2.16102" stroke-linecap="round" stroke-linejoin="round"/>
<path d="M2.6084 45.605L5.96335 45.547" stroke="#115635" stroke-width="2.16102" stroke-linecap="round" stroke-linejoin="round"/>
<path d="M9.18188 65.8902L11.7598 63.7408" stroke="#115635" stroke-width="2.16102" stroke-linecap="round" stroke-linejoin="round"/>
<path d="M71.5248 25.8901L68.5901 27.5193" stroke="#115635" stroke-width="2.16102" stroke-linecap="round" stroke-linejoin="round"/>
<path d="M77.2228 44.9757L73.8678 44.9177" stroke="#115635" stroke-width="2.16102" stroke-linecap="round" stroke-linejoin="round"/>
<path d="M70.6491 65.2618L68.0712 63.1124" stroke="#115635" stroke-width="2.16102" stroke-linecap="round" stroke-linejoin="round"/>
</svg>
