<svg width="148" height="122" viewBox="0 0 148 122" fill="none" xmlns="http://www.w3.org/2000/svg">
<g clip-path="url(#clip0_374_19726)">
<path d="M120.855 24.0469H28.1447C23.119 24.0469 19.0449 28.1213 19.0449 33.1473V91.856C19.0449 96.882 23.119 100.956 28.1447 100.956H120.855C125.881 100.956 129.955 96.882 129.955 91.856V33.1473C129.955 28.1213 125.881 24.0469 120.855 24.0469Z" fill="#F4D682" stroke="#B27F2D" stroke-width="2.58" stroke-linecap="round" stroke-linejoin="round"/>
<path d="M21.4707 27.4844L71.2184 60.3505C73.0574 61.5713 75.5147 61.5713 77.3537 60.3505L127.117 27.4844" fill="#F4D682"/>
<path d="M21.4707 27.4844L71.2184 60.3505C73.0574 61.5713 75.5147 61.5713 77.3537 60.3505L127.117 27.4844" stroke="#B27F2D" stroke-width="2.58" stroke-linecap="round" stroke-linejoin="round"/>
<path d="M74.4999 70.0714C79.8145 70.0714 84.1229 65.7628 84.1229 60.4478C84.1229 55.1329 79.8145 50.8242 74.4999 50.8242C69.1853 50.8242 64.877 55.1329 64.877 60.4478C64.877 65.7628 69.1853 70.0714 74.4999 70.0714Z" fill="#E07383" stroke="#9B3543" stroke-width="2.58" stroke-linecap="round" stroke-linejoin="round"/>
<path d="M74.5007 63.6191C76.2519 63.6191 77.6714 62.1994 77.6714 60.4482C77.6714 58.697 76.2519 57.2773 74.5007 57.2773C72.7496 57.2773 71.3301 58.697 71.3301 60.4482C71.3301 62.1994 72.7496 63.6191 74.5007 63.6191Z" fill="#E07383" stroke="#9B3543" stroke-width="2" stroke-linecap="round" stroke-linejoin="round"/>
</g>
<defs>
<clipPath id="clip0_374_19726">
<rect width="115" height="81" fill="white" transform="translate(17 22)"/>
</clipPath>
</defs>
</svg>
