<svg width="112" height="112" viewBox="0 0 112 112" fill="none" xmlns="http://www.w3.org/2000/svg">
<path d="M58.6828 65.5735H53.2849C41.9435 65.5735 32.7158 56.3458 32.7158 45.0045V35.569C32.7158 24.2277 41.9435 15 53.2849 15H58.6828C70.0242 15 79.2519 24.2277 79.2519 35.569V45.0045C79.2519 56.3458 70.0242 65.5735 58.6828 65.5735ZM53.2849 23.3167C46.5284 23.3167 41.0325 28.8126 41.0325 35.569V45.0045C41.0325 51.761 46.5284 57.2568 53.2849 57.2568H58.6828C65.4393 57.2568 70.9352 51.761 70.9352 45.0045V35.569C70.9352 28.8126 65.4393 23.3167 58.6828 23.3167H53.2849Z" fill="#848484" stroke="#3A3A3A" stroke-width="2.5" stroke-miterlimit="10" stroke-linecap="round"/>
<path d="M79.1431 42.9971H33.4081C26.5553 42.9971 21 48.5524 21 55.4052V85.3957C21 92.2486 26.5553 97.8039 33.4081 97.8039H79.1431C85.9959 97.8039 91.5512 92.2486 91.5512 85.3957V55.4052C91.5512 48.5524 85.9959 42.9971 79.1431 42.9971Z" fill="#848484" stroke="#3A3A3A" stroke-width="2.5" stroke-miterlimit="10" stroke-linecap="round"/>
<path d="M64 66.0367C64 61.5994 60.4188 58 56 58C51.5812 58 48 61.5976 48 66.0367C48 69.0279 49.6278 71.6338 52.0405 73.018V84H59.9578V73.018C62.3704 71.6338 63.9982 69.0279 63.9982 66.0367H64Z" fill="#848484" stroke="#3A3A3A" stroke-width="2.5" stroke-miterlimit="10" stroke-linecap="round"/>
</svg>
