<svg width="112" height="112" viewBox="0 0 112 112" fill="none" xmlns="http://www.w3.org/2000/svg">
<g clip-path="url(#clip0_200_8921)">
<path d="M41.82 51.5805L38.2193 47.9798C30.4658 40.2263 30.4658 27.656 38.2179 19.9039L41.9018 16.2201C49.6553 8.46657 62.2242 8.46793 69.9763 16.2201L73.577 19.8207C75.1448 21.3886 75.1435 23.9286 73.577 25.4951C72.0091 27.063 69.4691 27.0616 67.9026 25.4951L64.302 21.8944C59.6842 17.2767 52.1966 17.2767 47.5788 21.8944L43.895 25.5782C39.2773 30.196 39.2773 37.6836 43.895 42.3014L47.4957 45.902C49.0636 47.4699 49.0622 50.0099 47.4957 51.5764C45.9278 53.1442 43.3878 53.1429 41.8213 51.5764L41.82 51.5805Z" fill="#A5A5A5" stroke="#3A3A3A" stroke-width="3.08496" stroke-miterlimit="10" stroke-linecap="round"/>
</g>
<path d="M79.1431 41.9958H33.4081C26.5553 41.9958 21 47.5512 21 54.404V84.3945C21 91.2474 26.5553 96.8027 33.4081 96.8027H79.1431C85.9959 96.8027 91.5512 91.2474 91.5512 84.3945V54.404C91.5512 47.5512 85.9959 41.9958 79.1431 41.9958Z" fill="#A5A5A5" stroke="#3A3A3A" stroke-width="2.5" stroke-miterlimit="10" stroke-linecap="round"/>
<path d="M64 65.0355C64 60.5982 60.4188 56.9988 56 56.9988C51.5812 56.9988 48 60.5964 48 65.0355C48 68.0267 49.6278 70.6326 52.0405 72.0168V82.9988H59.9578V72.0168C62.3704 70.6326 63.9982 68.0267 63.9982 65.0355H64Z" fill="#A5A5A5" stroke="#3A3A3A" stroke-width="2.5" stroke-miterlimit="10" stroke-linecap="round"/>
<defs>
<clipPath id="clip0_200_8921">
<rect width="48" height="32.0431" fill="white" transform="translate(22 33.9412) rotate(-45)"/>
</clipPath>
</defs>
</svg>
