<svg width="66" height="66" viewBox="0 0 66 66" fill="none" xmlns="http://www.w3.org/2000/svg">
<path d="M35.4556 10.9025L40.5643 16.2198L48.235 15.8071C49.97 15.7144 51.4048 17.0437 51.3029 18.6494L50.8573 25.756L56.5966 30.4891C57.8955 31.5596 57.8955 33.4399 56.5966 34.5103L50.8573 39.2434L51.3029 46.3501C51.4029 47.9575 49.9681 49.2868 48.235 49.1924L40.5643 48.7796L35.4556 54.0969C34.3002 55.3003 32.2706 55.3003 31.1152 54.0969L26.0065 48.7796L18.3358 49.1924C16.6008 49.2851 15.166 47.9557 15.2679 46.3501L15.7135 39.2434L9.97417 34.5103C8.67528 33.4399 8.67528 31.5596 9.97417 30.4891L15.7135 25.756L15.2679 18.6494C15.1679 17.0419 16.6027 15.7126 18.3358 15.8071L26.0065 16.2198L31.1152 10.9025C32.2706 9.69915 34.3002 9.69915 35.4556 10.9025Z" fill="#787878"/>
<path d="M15.8212 39.2849L9.9898 34.6606C8.67007 33.6148 8.67007 31.7777 9.9898 30.7319L15.8212 26.1076L15.3685 19.1644C15.2668 17.5939 16.7247 16.2951 18.4856 16.3874L26.2793 16.7907L31.47 11.5957C32.6439 10.4199 34.706 10.4199 35.88 11.5957L41.0706 16.7907L48.8644 16.3874C50.6272 16.2968 52.085 17.5956 51.9815 19.1644L51.5288 26.1076L56.4839 30.6612" stroke="#464646" stroke-width="1.81236" stroke-linecap="round" stroke-linejoin="round"/>
<path d="M56.6009 30.7147C57.8947 31.7754 57.8947 33.6384 56.6009 34.699L50.8841 39.3887L51.3279 46.4301C51.4275 48.0228 49.9983 49.3399 48.272 49.2464L40.6314 48.8374L35.5426 54.1059C34.3918 55.2982 32.3702 55.2982 31.2193 54.1059L26.1306 48.8374L18.4899 49.2464C16.7617 49.3382 15.3325 48.0211 15.4341 46.4301L15.887 39.7227" stroke="#464646" stroke-width="1.81236" stroke-linecap="round" stroke-linejoin="round"/>
<rect x="24.2239" y="31.0234" width="17.3987" height="6.5245" rx="3.26225" fill="#626060"/>
<path d="M23.499 29.5739C23.499 27.5721 25.1219 25.9492 27.1237 25.9492C29.1256 25.9492 30.7485 27.5721 30.7485 29.5739V33.1987C30.7485 35.2005 29.1256 36.8234 27.1237 36.8234C25.1219 36.8234 23.499 35.2005 23.499 33.1987V29.5739Z" fill="white"/>
<path d="M28.2115 25.9492H26.3991C24.3973 25.9492 22.7744 27.5721 22.7744 29.5739V34.6486" stroke="#333333" stroke-width="1.81236" stroke-linecap="round"/>
<path d="M35.8232 29.5739C35.8232 27.5721 37.4461 25.9492 39.448 25.9492C41.4498 25.9492 43.0727 27.5721 43.0727 29.5739V33.1987C43.0727 35.2005 41.4498 36.8234 39.448 36.8234C37.4461 36.8234 35.8232 35.2005 35.8232 33.1987V29.5739Z" fill="white"/>
<path d="M25.6738 30.2989C25.6738 29.0977 26.6475 28.124 27.8487 28.124C29.0498 28.124 30.0235 29.0977 30.0235 30.2989V32.4737C30.0235 33.6748 29.0498 34.6485 27.8487 34.6485C26.6475 34.6485 25.6738 33.6748 25.6738 32.4737V30.2989Z" fill="#333333"/>
<rect x="36.5479" y="28.124" width="4.34967" height="6.5245" rx="2.17483" fill="#333333"/>
<path d="M37.9975 25.9492H39.8098C41.8117 25.9492 43.4346 27.5721 43.4346 29.5739V34.6486" stroke="#333333" stroke-width="1.81236" stroke-linecap="round"/>
<path d="M25.6737 23.049C26.6467 23.049 38.6465 23.049 40.8762 23.049" stroke="#333333" stroke-width="2.17483" stroke-linecap="round"/>
</svg>
