<svg width="66" height="66" viewBox="0 0 66 66" fill="none" xmlns="http://www.w3.org/2000/svg">
<path d="M61.2134 37.5437C61.2134 37.0948 61.1995 36.6486 61.1732 36.2052C60.4818 24.7395 50.9642 15.6542 39.3239 15.6542H27.613C15.5237 15.6542 5.72351 25.4545 5.72351 37.5437V39.0235C5.72351 51.1127 15.5237 60.913 27.613 60.913H39.3239C51.4131 60.913 61.2134 51.1127 61.2134 39.0235" fill="#DFDFDF"/>
<path d="M14.0647 52.4835C11.166 48.7715 9.43958 44.0993 9.43958 39.0253V37.5455C9.43958 25.4563 19.2398 15.6561 31.329 15.6561H35.6077C47.6969 15.6561 57.4972 25.4563 57.4972 37.5455V39.0253C57.4972 39.8096 57.4556 40.5841 57.3752 41.3476" stroke="#CDCDCD" stroke-width="2.89026" stroke-linecap="round" stroke-linejoin="round"/>
<path d="M56.9149 45.0184C54.248 53.7863 45.8046 60.1923 35.8036 60.1923H31.5053C26.3664 60.1923 21.6408 58.502 17.8965 55.6688" stroke="#CDCDCD" stroke-width="2.89026" stroke-linecap="round" stroke-linejoin="round"/>
<path d="M46.0476 27.398C43.5189 20.9883 38.8841 16.6943 33.5843 16.6943C25.5784 16.6943 19.0869 26.4946 19.0869 38.5838C19.0869 44.5848 20.6859 50.0204 23.2755 53.9749" stroke="#CDCDCD" stroke-width="2.89026" stroke-linecap="round" stroke-linejoin="round"/>
<path d="M27.2902 57.2603C29.2308 58.6749 31.4169 59.47 33.7307 59.47C41.7457 59.47 48.2445 49.9225 48.2445 38.145C48.2445 36.0135 48.0323 33.955 47.6356 32.0126" stroke="#CDCDCD" stroke-width="2.89026" stroke-linecap="round" stroke-linejoin="round"/>
<path d="M33.4678 32.8115V50.838V59.9648" stroke="#CDCDCD" stroke-width="2.89026" stroke-linecap="round" stroke-linejoin="round"/>
<path d="M33.4678 16.4512V27.3987" stroke="#CDCDCD" stroke-width="2.89026" stroke-linecap="round" stroke-linejoin="round"/>
<path d="M25.1152 27.6777L27.7958 29.4637" stroke="#888888" stroke-width="2.9688" stroke-miterlimit="10" stroke-linecap="round"/>
<path d="M41.8329 27.6777L39.1523 29.4637" stroke="#888888" stroke-width="2.9688" stroke-miterlimit="10" stroke-linecap="round"/>
<path d="M61.1658 36.0382C60.4301 24.6154 50.9319 15.5773 39.3221 15.5773H27.6111C15.5219 15.5773 5.72168 25.3775 5.72168 37.4667V38.9465C5.72168 42.5712 6.60291 45.9895 8.16169 49.0003" stroke="#7C7C7C" stroke-width="1.80641" stroke-linecap="round" stroke-linejoin="round"/>
<path d="M8.14258 48.9935C8.14258 49.2825 9.4447 51.1679 10.0958 52.0745C14.089 57.3951 20.4502 60.8383 27.6151 60.8383H39.326C50.904 60.8383 60.3828 51.8486 61.1628 40.4688V36.3486" stroke="#7C7C7C" stroke-width="1.80641" stroke-miterlimit="10" stroke-linecap="round"/>
<path d="M42.6973 12.5594C42.6973 10.3175 40.8794 8.49959 38.6376 8.49959H37.5568C37.1203 7.05304 35.7777 6 34.1898 6H32.7225C31.1346 6 29.792 7.05304 29.3555 8.49959H28.2969C26.0551 8.49959 24.2372 10.3175 24.2372 12.5594C24.2372 13.4489 24.524 14.2706 25.009 14.9398C24.9812 15.1324 24.966 15.3305 24.966 15.5314C24.966 17.154 25.9179 18.5534 27.2924 19.2032C27.8175 19.4513 28.405 19.5912 29.0258 19.5912H30.7189C31.7789 19.5912 32.7447 19.1838 33.4666 18.5188C34.1898 19.1838 35.1542 19.5912 36.2142 19.5912H37.9074C40.1492 19.5912 41.9671 17.7733 41.9671 15.5314C41.9671 15.3305 41.9519 15.1338 41.9242 14.9398C42.4091 14.2706 42.6959 13.4489 42.6959 12.5594H42.6973Z" fill="#DADADA" stroke="#7C7C7C" stroke-width="1.80641" stroke-miterlimit="10" stroke-linecap="round"/>
<path d="M34.5815 11.1786H32.3521C31.3558 11.1786 30.5481 11.9863 30.5481 12.9826C30.5481 13.979 31.3558 14.7866 32.3521 14.7866H34.5815C35.5779 14.7866 36.3856 13.979 36.3856 12.9826C36.3856 11.9863 35.5779 11.1786 34.5815 11.1786Z" fill="#9F9F9F"/>
<path d="M37.3845 47.3543H29.5315C27.1616 47.3543 25.1691 45.5749 24.9023 43.2196C24.6339 40.8644 26.1775 38.6848 28.4872 38.1529C28.9703 38.0423 33.3474 37.0973 38.3312 38.1318C40.6701 38.6165 42.2642 40.7928 42.0202 43.1708C41.7762 45.5472 39.7739 47.3543 37.3845 47.3543Z" fill="#A8A8A8"/>
<path d="M30.7861 42.8701C30.7861 42.8701 33.4748 42.0813 36.4335 42.8701" stroke="#636363" stroke-width="2.12057" stroke-miterlimit="10" stroke-linecap="round"/>
<path d="M28.9875 41.6621C29.7087 41.2457 30.0155 40.427 29.6728 39.8334C29.3301 39.2398 28.4677 39.0961 27.7465 39.5125C27.0253 39.9289 26.7185 40.7476 27.0612 41.3412C27.4039 41.9348 28.2664 42.0785 28.9875 41.6621Z" fill="#C8C8C8"/>
<path d="M26.8621 31.9111H25.5808C24.5292 31.9111 23.6768 33.2403 23.6768 34.8799C23.6768 36.5196 24.5292 37.8487 25.5808 37.8487H26.8621C27.9137 37.8487 28.7661 36.5196 28.7661 34.8799C28.7661 33.2403 27.9137 31.9111 26.8621 31.9111Z" fill="#6B6B6B"/>
<path d="M41.281 31.9111H39.9998C38.9482 31.9111 38.0957 33.2403 38.0957 34.8799C38.0957 36.5196 38.9482 37.8487 39.9998 37.8487H41.281C42.3326 37.8487 43.1851 36.5196 43.1851 34.8799C43.1851 33.2403 42.3326 31.9111 41.281 31.9111Z" fill="#6B6B6B"/>
<path d="M6.73535 22.2559L9.17259 23.6096" stroke="#7C7C7C" stroke-width="1.80641" stroke-linecap="round" stroke-linejoin="round"/>
<path d="M2 38.1151L4.7878 38.0667" stroke="#7C7C7C" stroke-width="1.80641" stroke-linecap="round" stroke-linejoin="round"/>
<path d="M7.46289 54.9716L9.605 53.1855" stroke="#7C7C7C" stroke-width="1.80641" stroke-linecap="round" stroke-linejoin="round"/>
<path d="M59.2667 21.7324L56.8281 23.0861" stroke="#7C7C7C" stroke-width="1.80641" stroke-linecap="round" stroke-linejoin="round"/>
<path d="M64.0017 37.5924L61.2139 37.5439" stroke="#7C7C7C" stroke-width="1.80641" stroke-linecap="round" stroke-linejoin="round"/>
<path d="M58.5386 54.449L56.3965 52.663" stroke="#7C7C7C" stroke-width="1.80641" stroke-linecap="round" stroke-linejoin="round"/>
</svg>
