<svg xmlns="http://www.w3.org/2000/svg" width="36" height="36" viewBox="0 0 36 36" fill="none">
  <path d="M24.1683 7.34607L9.513 19.7452L7.14473 27.2372L14.9261 26.1432L29.5814 13.7441L24.1683 7.34607Z" fill="#E0E0E0" stroke="#C6C6C6" stroke-width="1.65" stroke-linejoin="round"/>
  <path d="M24.5645 7.01142L9.90921 19.4106L12.6615 22.5702L15.3223 25.8086L29.9776 13.4094L24.5645 7.01142Z" fill="#E0E0E0" stroke="#C6C6C6" stroke-width="1.65" stroke-linejoin="round"/>
  <path d="M25.2535 6.42847L22.6957 8.59247L25.4141 11.7821L28.1094 14.9912L30.6671 12.8272C31.2317 12.3496 31.2509 11.445 30.7111 10.807L27.2537 6.72043C26.7139 6.08243 25.8186 5.95155 25.2541 6.42919L25.2535 6.42847Z" fill="#E0E0E0" stroke="#C6C6C6" stroke-width="1.65" stroke-linejoin="round"/>
  <path d="M7.61181 26.8409L8.7272 23.7387L10.8565 26.2555L7.61181 26.8409Z" fill="#C6C6C6"/>
</svg>