<svg xmlns="http://www.w3.org/2000/svg" width="166" height="272" viewBox="0 0 166 272" fill="none">
  <path d="M126.926 4.97747C131.155 -1.65917 140.845 -1.65915 145.074 4.97748L172.467 47.9619L222.23 36.9366C229.914 35.2344 236.766 42.0862 235.063 49.7695L224.038 99.5334L267.022 126.926C273.659 131.155 273.659 140.845 267.022 145.074L224.038 172.467L235.063 222.23C236.766 229.914 229.914 236.766 222.23 235.063L172.467 224.038L145.074 267.022C140.845 273.659 131.155 273.659 126.926 267.022L99.5334 224.038L49.7695 235.063C42.0861 236.766 35.2344 229.914 36.9366 222.23L47.9619 172.467L4.97747 145.074C-1.65917 140.845 -1.65915 131.155 4.97748 126.926L47.9619 99.5334L36.9366 49.7695C35.2344 42.0861 42.0862 35.2344 49.7695 36.9366L99.5334 47.9619L126.926 4.97747Z" fill="#FFE7D8"/>
</svg>