<svg xmlns="http://www.w3.org/2000/svg" width="81" height="124" viewBox="0 0 81 124" fill="none">
<path d="M14.8632 2.26914C16.7913 -0.756384 21.2087 -0.756377 23.1368 2.26915L35.6245 21.865L58.311 16.8388C61.8137 16.0627 64.9372 19.1863 64.1612 22.689L59.135 45.3755L78.7309 57.8632C81.7564 59.7913 81.7564 64.2087 78.7309 66.1368L59.135 78.6245L64.1612 101.311C64.9373 104.814 61.8137 107.937 58.3109 107.161L35.6245 102.135L23.1368 121.731C21.2087 124.756 16.7913 124.756 14.8632 121.731L2.37552 102.135L-20.311 107.161C-23.8137 107.937 -26.9373 104.814 -26.1612 101.311L-21.135 78.6245L-40.7309 66.1368C-43.7564 64.2087 -43.7564 59.7913 -40.7309 57.8632L-21.135 45.3755L-26.1612 22.689C-26.9373 19.1863 -23.8137 16.0627 -20.311 16.8388L2.37552 21.865L14.8632 2.26914Z" fill="#FFE7D8"/>
</svg>