<svg xmlns="http://www.w3.org/2000/svg" width="20" height="20" viewBox="0 0 20 20" fill="none">
  <path fill-rule="evenodd" clip-rule="evenodd" d="M5.38462 2C4.96299 2 4.55863 2.16749 4.2605 2.46563C3.96236 2.76376 3.79487 3.16812 3.79487 3.58974V4.38462C3.58406 4.38462 3.38188 4.46836 3.23281 4.61743C3.08375 4.7665 3 4.96867 3 5.17949C3 5.3903 3.08375 5.59248 3.23281 5.74155C3.38188 5.89061 3.58406 5.97436 3.79487 5.97436V7.5641C3.58406 7.5641 3.38188 7.64785 3.23281 7.79692C3.08375 7.94598 3 8.14816 3 8.35897C3 8.56979 3.08375 8.77197 3.23281 8.92103C3.38188 9.0701 3.58406 9.15385 3.79487 9.15385V10.7436C3.58406 10.7436 3.38188 10.8273 3.23281 10.9764C3.08375 11.1255 3 11.3276 3 11.5385C3 11.7493 3.08375 11.9515 3.23281 12.1005C3.38188 12.2496 3.58406 12.3333 3.79487 12.3333V13.9231C3.58406 13.9231 3.38188 14.0068 3.23281 14.1559C3.08375 14.305 3 14.5071 3 14.7179C3 14.9288 3.08375 15.1309 3.23281 15.28C3.38188 15.4291 3.58406 15.5128 3.79487 15.5128V16.3077C3.79487 16.7293 3.96236 17.1337 4.2605 17.4318C4.55863 17.7299 4.96299 17.8974 5.38462 17.8974H14.9231C15.3447 17.8974 15.7491 17.7299 16.0472 17.4318C16.3453 17.1337 16.5128 16.7293 16.5128 16.3077V3.58974C16.5128 3.16812 16.3453 2.76376 16.0472 2.46563C15.7491 2.16749 15.3447 2 14.9231 2H5.38462ZM7.37179 5.17949C7.05557 5.17949 6.75231 5.3051 6.52871 5.52871C6.3051 5.75231 6.17949 6.05557 6.17949 6.37179V7.16667C6.17949 7.48289 6.3051 7.78615 6.52871 8.00976C6.75231 8.23336 7.05557 8.35897 7.37179 8.35897H12.9359C13.2521 8.35897 13.5554 8.23336 13.779 8.00976C14.0026 7.78615 14.1282 7.48289 14.1282 7.16667V6.37179C14.1282 6.05557 14.0026 5.75231 13.779 5.52871C13.5554 5.3051 13.2521 5.17949 12.9359 5.17949H7.37179Z" fill="#FDFDFD"/>
</svg>