<svg width="24" height="24" viewBox="0 0 24 24" fill="none" xmlns="http://www.w3.org/2000/svg">
<path fill-rule="evenodd" clip-rule="evenodd" d="M19.6266 6.01072C18.7013 4.91408 17.4078 4.21796 15.9916 4.04631C15.4062 3.97956 14.8208 4.0177 14.2543 4.13213L10.6949 8.13724L15.1418 10.3591C15.3968 10.4926 15.5856 10.731 15.6422 11.0171C15.6989 11.3032 15.6233 11.5988 15.444 11.8277L12.3282 15.5753C12.1394 15.8042 11.8751 15.9186 11.6012 15.9186C11.3841 15.9186 11.1669 15.8423 10.997 15.6897C10.6004 15.3464 10.5438 14.7457 10.8837 14.3452L13.2252 11.5321L8.74046 9.2911C8.4761 9.15759 8.28727 8.90966 8.23062 8.61404C8.17397 8.31843 8.25894 8.02281 8.45722 7.79395L11.2614 4.64708C10.3266 4.16074 9.27863 3.93188 8.23062 4.0177C6.88048 4.1226 5.61531 4.71383 4.66171 5.67696C3.59482 6.75453 3 8.204 3 9.72022C3 11.2364 3.59482 12.6954 4.66171 13.7635L10.0056 19.1608C10.5344 19.6948 11.2614 20 12.0072 20C12.7531 20 13.4801 19.6948 14.0088 19.1608L19.3528 13.7635C20.3536 12.7431 20.9389 11.3795 20.9956 9.93954C21.0522 8.49961 20.5613 7.09782 19.636 6.01072H19.6266Z" fill="#FF802D"/>
</svg>
