<svg width="24" height="24" viewBox="0 0 24 24" fill="none" xmlns="http://www.w3.org/2000/svg">
<path d="M7.73633 11.8181L10.8368 14.3687L16.2626 9.63184" stroke="white" stroke-width="1.89474" stroke-linecap="round" stroke-linejoin="round"/>
<path fill-rule="evenodd" clip-rule="evenodd" d="M16.1036 4.8568L16.8756 4.20364L16.8761 4.20415C17.2775 3.86453 17.9141 3.95759 18.2979 4.41123L20.7562 7.31685C21.14 7.77048 21.1263 8.41368 20.7249 8.75329L18.9063 10.292L18.9059 10.2915L9.81445 17.9834L9.81414 17.983L9.53191 18.2217L3.99921 18.9995L5.6831 13.6726L16.1034 4.85651L16.1036 4.8568Z" fill="#C6C6C6"/>
<path d="M16.8756 4.20364L17.4657 3.70365C17.1897 3.37793 16.702 3.33743 16.3761 3.61318L16.8756 4.20364ZM16.1036 4.8568L15.5128 5.35595C15.6453 5.5127 15.8346 5.6104 16.0391 5.62752C16.2436 5.64465 16.4465 5.5798 16.6032 5.44725L16.1036 4.8568ZM16.8761 4.20415L16.286 4.70413C16.562 5.02986 17.0497 5.07035 17.3756 4.7946L16.8761 4.20415ZM18.2979 4.41123L18.8883 3.91168V3.91168L18.2979 4.41123ZM20.7562 7.31685L21.3466 6.81729V6.81729L20.7562 7.31685ZM20.7249 8.75329L20.2253 8.16284V8.16284L20.7249 8.75329ZM18.9063 10.292L18.3142 10.7896C18.4465 10.947 18.636 11.0452 18.8408 11.0626C19.0456 11.08 19.2489 11.0152 19.4058 10.8824L18.9063 10.292ZM18.9059 10.2915L19.4979 9.79383C19.3656 9.6365 19.1762 9.53829 18.9714 9.52088C18.7666 9.50348 18.5633 9.56832 18.4063 9.70108L18.9059 10.2915ZM9.81445 17.9834L9.21691 18.4744C9.34836 18.6344 9.53846 18.7349 9.74466 18.7536C9.95086 18.7723 10.1559 18.7075 10.314 18.5738L9.81445 17.9834ZM9.81414 17.983L10.4117 17.4919C10.2802 17.332 10.0901 17.2314 9.88393 17.2127C9.67773 17.194 9.47265 17.2588 9.31458 17.3925L9.81414 17.983ZM9.53191 18.2217L9.63958 18.9876C9.78415 18.9673 9.92001 18.9065 10.0315 18.8122L9.53191 18.2217ZM3.99921 18.9995L3.26175 18.7664C3.1817 19.0197 3.23719 19.2963 3.40873 19.4991C3.58027 19.7018 3.84386 19.8024 4.10688 19.7654L3.99921 18.9995ZM5.6831 13.6726L5.18355 13.0822C5.07212 13.1764 4.98964 13.3003 4.94565 13.4395L5.6831 13.6726ZM16.1034 4.85651L16.6942 4.35736C16.5617 4.2006 16.3724 4.1029 16.1679 4.08578C15.9634 4.06866 15.7605 4.13351 15.6038 4.26606L16.1034 4.85651ZM16.3761 3.61318L15.6041 4.26635L16.6032 5.44725L17.3752 4.79409L16.3761 3.61318ZM17.4662 3.70417L17.4657 3.70365L16.2856 4.70362L16.286 4.70413L17.4662 3.70417ZM18.8883 3.91168C18.2884 3.20259 17.1705 2.94199 16.3765 3.6137L17.3756 4.7946C17.3879 4.78425 17.4178 4.7662 17.482 4.77555C17.5481 4.78519 17.6344 4.8245 17.7074 4.91078L18.8883 3.91168ZM21.3466 6.81729L18.8883 3.91168L17.7074 4.91078L20.1657 7.8164L21.3466 6.81729ZM21.2244 9.34375C22.0184 8.67204 21.9465 7.52638 21.3466 6.81729L20.1657 7.8164C20.2387 7.90268 20.2632 7.99431 20.2617 8.06112C20.2603 8.12593 20.2376 8.15249 20.2253 8.16284L21.2244 9.34375ZM19.4058 10.8824L21.2244 9.34374L20.2253 8.16284L18.4067 9.7015L19.4058 10.8824ZM18.3139 10.7892L18.3142 10.7896L19.4983 9.79426L19.4979 9.79383L18.3139 10.7892ZM18.4063 9.70108L9.3149 17.3929L10.314 18.5738L19.4054 10.882L18.4063 9.70108ZM10.412 17.4923L10.4117 17.4919L9.2166 18.474L9.21691 18.4744L10.412 17.4923ZM9.31458 17.3925L9.03236 17.6313L10.0315 18.8122L10.3137 18.5734L9.31458 17.3925ZM9.42424 17.4559L3.89154 18.2337L4.10688 19.7654L9.63958 18.9876L9.42424 17.4559ZM4.73666 19.2327L6.42056 13.9057L4.94565 13.4395L3.26175 18.7664L4.73666 19.2327ZM6.18265 14.2631L16.6029 5.44696L15.6038 4.26606L5.18355 13.0822L6.18265 14.2631ZM15.5126 5.35566L15.5128 5.35595L16.6944 4.35765L16.6942 4.35736L15.5126 5.35566Z" fill="#C6C6C6"/>
</svg>
