<svg width="24" height="24" viewBox="0 0 24 24" fill="none" xmlns="http://www.w3.org/2000/svg">
<path fill-rule="evenodd" clip-rule="evenodd" d="M4.6627 5.67638C5.61686 4.71321 6.88278 4.12195 8.22428 4.01705C9.57522 3.91215 10.9073 4.29361 12.0031 5.09466C13.1651 4.25546 14.5917 3.88354 15.9993 4.04566C17.4164 4.21732 18.7106 4.91347 19.6364 6.01015C20.5623 7.10684 21.0441 8.50868 20.9968 9.93914C20.9401 11.3791 20.3544 12.7428 19.353 13.7632L14.0059 19.1608C13.4769 19.6948 12.7495 20 12.0031 20C11.2568 20 10.5294 19.6948 10.0003 19.1608L4.6627 13.7632C3.59517 12.6856 3 11.2361 3 9.7198C3 8.20352 3.59517 6.74445 4.6627 5.67638Z" fill="#FF802D"/>
</svg>
