<svg width="24" height="24" viewBox="0 0 24 24" fill="none" xmlns="http://www.w3.org/2000/svg">
<path fill-rule="evenodd" clip-rule="evenodd" d="M14.25 2.5C14.25 2.4337 14.2237 2.37011 14.1768 2.32322C14.1299 2.27634 14.0663 2.25 14 2.25H7C6.27065 2.25 5.57118 2.53973 5.05546 3.05546C4.53973 3.57118 4.25 4.27065 4.25 5V19C4.25 19.7293 4.53973 20.4288 5.05546 20.9445C5.57118 21.4603 6.27065 21.75 7 21.75H17C17.7293 21.75 18.4288 21.4603 18.9445 20.9445C19.4603 20.4288 19.75 19.7293 19.75 19V9.147C19.75 9.0807 19.7237 9.01711 19.6768 8.97022C19.6299 8.92334 19.5663 8.897 19.5 8.897H15C14.8011 8.897 14.6103 8.81798 14.4697 8.67733C14.329 8.53668 14.25 8.34591 14.25 8.147V2.5ZM13 11.5C13 11.1022 13.158 10.7206 13.4393 10.4393C13.7206 10.158 14.1022 10 14.5 10C14.8978 10 15.2794 10.158 15.5607 10.4393C15.842 10.7206 16 11.1022 16 11.5C16 11.8978 15.842 12.2794 15.5607 12.5607C15.2794 12.842 14.8978 13 14.5 13C14.1022 13 13.7206 12.842 13.4393 12.5607C13.158 12.2794 13 11.8978 13 11.5ZM11.136 13.102C11.0686 12.9941 10.9748 12.9052 10.8636 12.8435C10.7523 12.7819 10.6272 12.7495 10.5 12.7495C10.3728 12.7495 10.2477 12.7819 10.1364 12.8435C10.0252 12.9052 9.93142 12.9941 9.864 13.102L7.364 17.102C7.29291 17.2155 7.25353 17.346 7.24995 17.4799C7.24637 17.6139 7.27872 17.7463 7.34364 17.8635C7.40855 17.9806 7.50367 18.0783 7.61909 18.1463C7.73452 18.2142 7.86604 18.2501 8 18.25H16C16.1393 18.25 16.2758 18.2112 16.3943 18.138C16.5128 18.0648 16.6085 17.96 16.6708 17.8354C16.7331 17.7108 16.7595 17.5714 16.747 17.4326C16.7345 17.2939 16.6836 17.1614 16.6 17.05L15.1 15.05C15.0301 14.9569 14.9396 14.8813 14.8354 14.8292C14.7313 14.7771 14.6164 14.75 14.5 14.75C14.3836 14.75 14.2687 14.7771 14.1646 14.8292C14.0604 14.8813 13.9699 14.9569 13.9 15.05L13.056 16.175L11.136 13.102Z" fill="white"/>
<path d="M15.75 2.82347C15.75 2.63947 15.943 2.52247 16.086 2.63747C16.207 2.73547 16.316 2.84947 16.409 2.97947L19.422 7.17647C19.49 7.27247 19.416 7.39647 19.298 7.39647H16C15.9337 7.39647 15.8701 7.37013 15.8232 7.32325C15.7763 7.27636 15.75 7.21277 15.75 7.14647V2.82347Z" fill="white"/>
</svg>
