<svg width="32" height="32" viewBox="0 0 32 32" fill="none" xmlns="http://www.w3.org/2000/svg">
<path d="M16.3343 8.75986L15.7967 9.29752L15.259 8.75986C12.9125 6.41338 9.10755 6.41338 6.75986 8.75986C4.41338 11.1063 4.41338 14.9113 6.75986 17.259L7.29752 17.7967L14.7201 25.2193C15.315 25.8141 16.2784 25.8141 16.872 25.2193L24.2946 17.7967L24.8322 17.259C27.1787 14.9125 27.1787 11.1076 24.8322 8.75986C22.4858 6.41338 18.6808 6.41338 16.3331 8.75986H16.3343Z" fill="white" stroke="white" stroke-width="8" stroke-miterlimit="10"/>
<path d="M24.8332 8.76014C23.067 6.99389 20.476 6.5572 18.3023 7.44883L14.1871 11.6796L18.1295 14.5491C18.3728 14.7267 18.5273 15.0016 18.5516 15.3021C18.576 15.6025 18.4677 15.8981 18.2561 16.1134L15.1809 19.2189C14.979 19.4233 14.7126 19.5255 14.4462 19.5255C14.1798 19.5255 13.9207 19.4257 13.7188 19.2262C13.3125 18.8248 13.3101 18.1704 13.7115 17.7641L15.94 15.5137L12.0061 12.6503C11.764 12.4739 11.6095 12.2014 11.584 11.9022C11.5584 11.6029 11.6643 11.3085 11.8735 11.0932L14.6554 8.23343C12.2992 6.43191 8.91637 6.60585 6.76087 8.76135C4.41439 11.1078 4.41439 14.9128 6.76087 17.2605L7.29852 17.7982L14.7211 25.2208C15.316 25.8156 16.2794 25.8156 16.873 25.2208L24.2956 17.7982L24.8332 17.2605C27.1797 14.914 27.1797 11.109 24.8332 8.76135V8.76014Z" fill="#FF6292"/>
<path d="M14.6554 8.23221C12.2992 6.43069 8.91637 6.60464 6.76087 8.76014C4.41439 11.1066 4.41439 14.9116 6.76087 17.2593L7.29852 17.7969L14.7211 25.2195C15.316 25.8144 16.2794 25.8144 16.873 25.2195L24.2956 17.7969L24.8332 17.2593C27.1797 14.9128 27.1797 11.1078 24.8332 8.76014C23.067 6.99389 20.476 6.5572 18.3023 7.44883" stroke="#AE2F56" stroke-width="2.18956" stroke-linecap="round" stroke-linejoin="round"/>
<path d="M10.2002 11.6151C10.9519 11.084 11.2034 10.1469 10.7619 9.52193C10.3204 8.89696 9.35305 8.82084 8.60133 9.3519C7.84962 9.88297 7.59816 10.8201 8.03967 11.4451C8.48119 12.07 9.4485 12.1462 10.2002 11.6151Z" fill="#FFB0C9"/>
</svg>
