<svg width="24" height="24" viewBox="0 0 24 24" fill="none" xmlns="http://www.w3.org/2000/svg">
<path fill-rule="evenodd" clip-rule="evenodd" d="M11.5788 21.5892C9.18605 21.4841 6.91289 20.4874 5.21217 18.7867C3.41182 16.9863 2.40039 14.5445 2.40039 11.9984C2.40039 9.45236 3.41182 7.01056 5.21217 5.21021C7.01252 3.40986 9.45431 2.39844 12.0004 2.39844C14.5465 2.39844 16.9883 3.40986 18.7886 5.21021C20.1643 6.58588 21.0793 8.33606 21.4345 10.2211C20.813 10.0765 20.1655 10 19.5 10C18.0419 10 16.6695 10.3672 15.4703 11.0141C15.5535 10.7692 15.6004 10.492 15.6004 10.1984C15.6004 9.20484 15.0628 8.39844 14.4004 8.39844C13.738 8.39844 13.2004 9.20484 13.2004 10.1984C13.2004 11.0337 13.5803 11.7367 14.095 11.9395C12.7895 13.0163 11.811 14.4752 11.3305 16.145C11.0095 16.0931 10.6948 16.004 10.393 15.879C9.88343 15.6679 9.4204 15.3585 9.03039 14.9684C8.85978 14.8095 8.63413 14.7229 8.40096 14.727C8.1678 14.7311 7.94534 14.8256 7.78045 14.9905C7.61555 15.1554 7.52109 15.3778 7.51698 15.611C7.51287 15.8442 7.59941 16.0698 7.75839 16.2404C8.64967 17.1315 9.79238 17.7132 11.0197 17.9165C11.0066 18.1093 11 18.3039 11 18.5C11 19.5898 11.2051 20.6317 11.5788 21.5892ZM11.1115 17.1196C11.1263 17.0292 11.1425 16.9393 11.1601 16.8499L10.999 17L11.1115 17.1196ZM21.1614 12.0076C20.6301 11.872 20.0735 11.8 19.5 11.8C15.7997 11.8 12.8 14.7997 12.8 18.5C12.8 19.4852 13.0127 20.4208 13.3946 21.2633L21.1614 12.0076ZM9.60039 11.9984C10.2628 11.9984 10.8004 11.192 10.8004 10.1984C10.8004 9.20484 10.2628 8.39844 9.60039 8.39844C8.93799 8.39844 8.40039 9.20484 8.40039 10.1984C8.40039 11.192 8.93799 11.9984 9.60039 11.9984Z" fill="#C6C6C6"/>
</svg>
